<svg xmlns="http://www.w3.org/2000/svg" xmlns:xlink="http://www.w3.org/1999/xlink" viewBox="0 0 487.89 487.89"><defs><linearGradient id="Gradiente_sem_nome_27" x1="243.95" x2="243.95" y2="487.89" gradientUnits="userSpaceOnUse"><stop offset="0" stop-color="#b3b3b3"/><stop offset="0.01" stop-color="#9b9b9b"/><stop offset="0.03" stop-color="#777"/><stop offset="0.06" stop-color="#575757"/><stop offset="0.08" stop-color="#3b3b3b"/><stop offset="0.11" stop-color="#252525"/><stop offset="0.15" stop-color="#141414"/><stop offset="0.19" stop-color="#090909"/><stop offset="0.25" stop-color="#020202"/><stop offset="0.42"/></linearGradient><linearGradient id="Gradiente_sem_nome_32" x1="243.95" x2="243.95" y2="487.89" gradientUnits="userSpaceOnUse"><stop offset="0" stop-color="#fff"/><stop offset="0" stop-color="#f6f6f6"/><stop offset="0.01" stop-color="#c8c8c8"/><stop offset="0.02" stop-color="#9d9d9d"/><stop offset="0.04" stop-color="#777"/><stop offset="0.05" stop-color="#575757"/><stop offset="0.07" stop-color="#3c3c3c"/><stop offset="0.08" stop-color="#252525"/><stop offset="0.1" stop-color="#151515"/><stop offset="0.13" stop-color="#090909"/><stop offset="0.16" stop-color="#020202"/><stop offset="0.26"/></linearGradient><linearGradient id="Gradiente_sem_nome_35" x1="243.95" y1="461.38" x2="243.95" y2="26.51" gradientUnits="userSpaceOnUse"><stop offset="0" stop-color="#b3b3b3"/><stop offset="0.02" stop-color="#9b9b9b"/><stop offset="0.04" stop-color="#777"/><stop offset="0.08" stop-color="#575757"/><stop offset="0.11" stop-color="#3b3b3b"/><stop offset="0.15" stop-color="#252525"/><stop offset="0.2" stop-color="#141414"/><stop offset="0.26" stop-color="#090909"/><stop offset="0.34" stop-color="#020202"/><stop offset="0.57"/></linearGradient><linearGradient id="Gradiente_sem_nome_15" x1="243.95" y1="26.51" x2="243.95" y2="461.38" gradientUnits="userSpaceOnUse"><stop offset="0" stop-color="#b3b3b3"/><stop offset="1"/></linearGradient></defs><g id="Camada_2" data-name="Camada 2"><g id="Camada_1-2" data-name="Camada 1"><circle cx="243.95" cy="243.95" r="243.95" fill="url(#Gradiente_sem_nome_27)"/><path d="M244,2a242,242,0,0,1,94.17,464.88A242,242,0,0,1,149.77,21,240.54,240.54,0,0,1,244,2m0-2C109.22,0,0,109.22,0,244S109.22,487.89,244,487.89,487.89,378.68,487.89,244,378.68,0,244,0Z" fill="url(#Gradiente_sem_nome_32)"/><path d="M244,1a243,243,0,0,1,94.56,466.8A243,243,0,0,1,149.38,20.09,241.4,241.4,0,0,1,244,1m0-1C109.22,0,0,109.22,0,244S109.22,487.89,244,487.89,487.89,378.68,487.89,244,378.68,0,244,0Z" fill="url(#Gradiente_sem_nome_32)"/><circle cx="243.95" cy="243.95" r="217.44" fill="url(#Gradiente_sem_nome_35)"/><path d="M244,42.51a201.5,201.5,0,0,1,78.4,387.05A201.5,201.5,0,0,1,165.54,58.33,200.21,200.21,0,0,1,244,42.51m0-16C123.86,26.51,26.51,123.86,26.51,244S123.86,461.38,244,461.38,461.38,364,461.38,244,364,26.51,244,26.51Z" fill="url(#Gradiente_sem_nome_15)"/><circle cx="243.95" cy="243.95" r="172.57" fill="#fff"/></g></g></svg>