<svg xmlns="http://www.w3.org/2000/svg" xmlns:xlink="http://www.w3.org/1999/xlink" viewBox="0 0 203.08 155.84"><defs><linearGradient id="Gradiente_sem_nome_140" x1="50.81" y1="-1.13" x2="152.93" y2="100.99" gradientUnits="userSpaceOnUse"><stop offset="0" stop-color="#fff"/><stop offset="0" stop-color="#f1f6e1"/><stop offset="0" stop-color="#e5eec6"/><stop offset="0" stop-color="#dbe7b0"/><stop offset="0" stop-color="#d3e29f"/><stop offset="0" stop-color="#cedf94"/><stop offset="0" stop-color="#cbdd8d"/><stop offset="0" stop-color="#cadc8b"/><stop offset="0.28" stop-color="#aead4e"/><stop offset="0.51" stop-color="#9ba521"/><stop offset="0.68" stop-color="#dfd89b"/><stop offset="1" stop-color="#f5fafb"/></linearGradient></defs><g id="Camada_2" data-name="Camada 2"><g id="Camada_1-2" data-name="Camada 1"><polygon points="86.23 131.28 81.92 126.33 6.93 45.11 44.62 7.43 101.63 76.16 158.47 7.42 196.16 45.11 121.41 126.28 114.78 134.26 102.05 148.41 86.23 131.28"/><path d="M158.82,14.84l30.41,30.41L117.64,123,111,131l-9,10L90,128l-4.36-5L13.87,45.25l30.4-30.41L101.64,84l57.18-69.15M158.12,0l-7,8.47L101.63,68.32,52,8.46,45,0,37.2,7.77,6.79,38.18,0,45,6.52,52,78.2,129.67l4.26,4.9.1.1.09.11,12,13,7.44,8.06,7.34-8.16,9-10,.14-.15.12-.15,6.48-7.8L196.58,52l6.5-7.06-6.78-6.78L165.89,7.77,158.12,0Z"/><path d="M90.06,128.4l-4.36-5L13.93,45.65l30.41-30.4L101.7,84.4l57.19-69.15,30.4,30.4L117.7,123.4l-6.64,8-9,10h0Z" fill="#078136"/><path d="M158.89,15.25l30.4,30.4L117.7,123.4l-6.64,8-9,10-12-13-4.36-5L13.93,45.65l30.41-30.4L101.7,84.4l57.19-69.15M158.4,4.86l-4.91,5.93L101.7,73.42l-52-62.64-4.9-5.91L39.39,10.3,9,40.7,4.22,45.46,8.79,50.4l71.7,77.67,4.3,4.93.06.07.07.08,12,13,5.21,5.64,5.14-5.71,9-10,.09-.1.09-.11L123,128l71.46-77.62L199,45.45l-4.75-4.75-30.4-30.4L158.4,4.86Z" fill="url(#Gradiente_sem_nome_140)"/></g></g></svg>