<svg xmlns="http://www.w3.org/2000/svg" xmlns:xlink="http://www.w3.org/1999/xlink" viewBox="0 0 229.41 184.28"><defs><linearGradient id="Gradiente_sem_nome_140" x1="60.67" y1="7.24" x2="167.46" y2="114.03" gradientUnits="userSpaceOnUse"><stop offset="0" stop-color="#fff"/><stop offset="0" stop-color="#f1f6e1"/><stop offset="0" stop-color="#e5eec6"/><stop offset="0" stop-color="#dbe7b0"/><stop offset="0" stop-color="#d3e29f"/><stop offset="0" stop-color="#cedf94"/><stop offset="0" stop-color="#cbdd8d"/><stop offset="0" stop-color="#cadc8b"/><stop offset="0.28" stop-color="#aead4e"/><stop offset="0.51" stop-color="#9ba521"/><stop offset="0.68" stop-color="#dfd89b"/><stop offset="1" stop-color="#f5fafb"/></linearGradient></defs><g id="Camada_2" data-name="Camada 2"><g id="Camada_1-2" data-name="Camada 1"><polygon points="6.78 63.96 44.3 26.44 102.13 95.45 185.05 6.99 222.38 40.59 101.83 176.63 6.78 63.96"/><path d="M185.34,14l30,27L101.92,169,13.57,64.24,44,33.84l58,69.15,83.42-89m-.59-14-6.7,7.15L102.34,87.92l-50.7-60.5-7-8.37L36.9,26.77,6.5,57.17,0,63.67l5.92,7L94.28,175.44l7.46,8.84,7.67-8.66,113.42-128,6.58-7.43L222,33.56l-30-27L184.75,0Z"/><path d="M101.92,169h0L13.57,64.24,44,33.84l58,69.15,83.42-89,30,27L101.92,169Z" fill="#078136"/><path d="M185.34,14l30,27L101.92,169,13.57,64.24,44,33.84l58,69.15,83.42-89m-.41-9.79-4.69,5-78,83.24L49.34,29.34l-4.91-5.86L39,28.89,8.62,59.29,4.07,63.84l4.15,4.92L96.57,173.5l5.22,6.19,5.37-6.06,113.42-128,4.61-5.2L220,35.79l-30-27-5.1-4.59Z" fill="url(#Gradiente_sem_nome_140)"/></g></g></svg>