<svg xmlns="http://www.w3.org/2000/svg" viewBox="0 0 367.44 181.88"><defs><style>.cls-1{fill:#fff;}</style></defs><g id="Camada_2" data-name="Camada 2"><g id="Camada_1-2" data-name="Camada 1"><path class="cls-1" d="M14.24,49.76,62.82,10.29s98.1-9,124,51.34c.38.89,2,1.37,2.21.41C191.74,47.74,251.21-.11,299.22,1.1L296,18.33s25.75-3.79,47.55,14.6l10.75,8.37-4.52,7.33L353.59,63,216.48,118.69,10.83,53.93Z"/><path d="M219.39,181.37a33.8,33.8,0,0,1-5.81.51c-8.62-.2-16.89-.08-25.38-2-3-.59-4.95-2.48-6.91-4.54a5.16,5.16,0,0,0-2.08-1.53c-4.61-1.2-7.63-1.91-11.16-1.91-.44,0-3.43.22-3.87.16-2.15-.28-3.83-.22-6-.5-1-.14-2.93-.53-4-.59-2.77-.17-5.05-.42-8.41-.84-6.36-.8-13-1.58-19.34-2.24-.69-.07-.78-.29-1.7-.46-.57-.1-1.87-.43-2.61-.5-1.46-.13-2.86-.44-4.3-.67-6.33-1-12.64-2.15-19-3.21-7.43-.93-14.67-2.93-22.19-3.32-4.54-.25-6.22-3.11-8.56-6.52-5.13-7.35-10.11-14.83-15.42-22.06-1.83-2.36-3.75-4.64-5.52-7-1.63-2.23-3.06-4.62-4.68-6.87-6-7.22-11.34-15-16.81-22.61-4.91-6.1-9.4-12.54-14-18.89C10.42,73.85,9.19,71.91,7.87,70,7,68.87,6.1,67.78,5.25,66.63c-1-1.35-1.88-2.8-3-4A8.63,8.63,0,0,1,0,57.27a2.12,2.12,0,0,1,1.47-2.4,9.79,9.79,0,0,0,2.86-1.41A4.8,4.8,0,0,1,8.22,52.3c3.89.36,7.77.79,11.67,1.1a49.23,49.23,0,0,0,7.38.26c2.35-.17,4.64-1,7-1.3,4.08-.54,8.17-1.1,12.27-1.28,6.12-.36,12.27,0,18.39-.4v-.34a21.94,21.94,0,0,0-2.36-.48c-5.17-.42-10.33-.89-15.5-1.18a72,72,0,0,0-17.82,1.19c-3.05.6-6.15,1-9.24,1.39-.75.1-1.92.33-2-.79s1.13-1.15,1.91-1.3c4.52-.86,9.05-1.68,13.57-2.49.74-.13,1.36-.27,1.44-1.22,0-.21.53-.51.83-.53,3.15-.29,6.31-.73,9.46-.74,11.55,0,23.16.16,34.62,1.77,5,.69,9.88,1.67,14.78,2.74,4.17.9,8.27,2.12,12.4,3.18a6.64,6.64,0,0,0,1,.1,1.43,1.43,0,0,0-.81-.83c-3.42-1.11-6.83-2.33-10.3-3.27-11-2.55-22-5.82-33.47-5.74a42.86,42.86,0,0,0-4.54.19,3.31,3.31,0,0,1-2.66-.49,2.87,2.87,0,0,0-1.74-.31c-3.08.16-6.16.4-9.24.57A4.77,4.77,0,0,1,44,41.85v-.47a11.3,11.3,0,0,1,2.89-.5c3.61-.32,7.21-.87,10.82-.89a124.56,124.56,0,0,1,23.75,2.32c3.36.52,6.59,1.77,10,1.91l0-.39c-3.48-1.17-7.09-2-10.59-3.14-.42-.12-.73-.62-1.09-.95.5-.16,1-.53,1.49-.46a35.58,35.58,0,0,1,4.93,1c4,1.18,8,2.36,11.85,3.76,7.05,2.56,14,5.44,20.85,8.49,3.06,1.16,6,2.55,9,3.88,1.05.47,2.05,1,3.06,1.57l.22-.32a3.07,3.07,0,0,0-.59-.65c-2-1.33-3.91-2.7-5.94-3.92-5.92-3.54-11.78-7.21-18.34-9.46-2.87-1.12-5.76-2.18-8.68-3.16-1.48-.5-3-.71-4.53-1.17-.41-.12-.68-.66-1-1,.42-.18.82-.39,1.25-.54a1.27,1.27,0,0,1,.61,0c1.36.29,1.94-.51,2.44-1.73A8.92,8.92,0,0,0,95,35.6,147.5,147.5,0,0,0,68.43,34c-7,0-14,1.07-20.86,2.16a61.51,61.51,0,0,0-17.63,5.36,34.46,34.46,0,0,1-4.75,1.71c-.36.11-.89-.32-1.34-.5.24-.38.39-.94.73-1.11,1.14-.57,2.35-1,3.52-1.48.51-.22,1-.49.6-1.18-.59-.9-.12-1.44.65-1.74,12.59-5.6,26.44-7.37,40-8.85,6.49-.58,13-.57,19.55-.86A16.59,16.59,0,0,0,91.13,27a5.39,5.39,0,0,1,2-.13c1.89.4,3.76.9,5.61,1.41,2.45.69,4.94,1.28,7.31,2.17a156.45,156.45,0,0,1,22.1,9.94c1.93,1,3.76,2.2,5.72,3.17.4.2,1.14-.25,1.72-.4a4.78,4.78,0,0,0-.67-1.22,7,7,0,0,0-1.51-1.05c-2.82-1.6-5.73-3-8.45-4.8-1.56-1-3.72-1.45-4.35-3.66-.07-.24-.48-.42-.77-.57a24.67,24.67,0,0,1-2.28-1.19c-.33-.22-.74-.87-.63-1.13.52-1.27-.34-1.5-1.18-1.8-4-1.31-7.91-2.75-12.12-3.16a6.88,6.88,0,0,1-1.58-.28c-.34-.14-.59-.51-.88-.77a4.69,4.69,0,0,1,.86-.76,1.67,1.67,0,0,1,1-.13,32.55,32.55,0,0,1,4.73.86c5.89,1.91,11.75,3.94,17.62,5.92.2.06.46-.06,1-.14a5.36,5.36,0,0,0-.78-.61c-6.92-3.44-13.75-7.09-21.26-9.09-5.7-1.76-11.49-2.87-17.5-1.94-1.18.18-2.34.47-3.53.59-.39,0-.82-.26-1.23-.41a6.84,6.84,0,0,1,.72-1.16,30.91,30.91,0,0,1,13.19-.78,49.48,49.48,0,0,1,6.42,1.23c2.25.62,4.42,1.53,6.62,2.33A99.64,99.64,0,0,1,131.15,29.6a4.12,4.12,0,0,0,1,.23,3.91,3.91,0,0,0-.58-.67c-3.49-2.25-6.94-4.56-10.49-6.69-1.69-1-3.61-1.61-5.36-2.5-.36-.18-.48-.82-.71-1.25.4-.12.84-.41,1.18-.33a15.52,15.52,0,0,1,3.73,1.21c3.4,1.89,6.78,3.83,10,5.95,2.2,1.44,4.14,3.26,6.28,4.79a2.82,2.82,0,0,1,1.4,2.65,2.08,2.08,0,0,0,.77,1.64,22.26,22.26,0,0,0,4,1.76c1.78.57,3.67.81,5.42,1.43a14.39,14.39,0,0,1,6,3.36c2.54,1.87,5,3.87,7.47,5.85,1.9,1.57,3.65,3.33,5.58,4.88.09-.28.07-.45,0-.54-3.76-3.45-7.47-6.94-11.3-10.3-1.85-1.62-3.94-3-5.88-4.49-.27-.22-.31-.74-.45-1.11.45,0,1-.1,1.34.12q3.27,2.19,6.44,4.54a33.35,33.35,0,0,1,3,2.56,145.58,145.58,0,0,1,13.11,13.06l.27-.2c-1.64-2.17-3.14-4.44-4.86-6.54-2-2.4-2.78-5.6-5.34-7.58a.77.77,0,0,1-.29-.39c-.11-.46-.38-1.16-.2-1.33a1.93,1.93,0,0,1,1.51-.48c.31.08.66.85.62,1.28a2.84,2.84,0,0,0,1,2.53,8,8,0,0,1,.8.93l3.52,4.35c-.06-1.61,1.14-1.4,2.25-1.57a31.59,31.59,0,0,0-2-2.52c-.16-.15-.77.1-1.14.23s-.65.5-.85.42a1.45,1.45,0,0,1-.59-1.67,2.09,2.09,0,0,0-.58-2.25,64.19,64.19,0,0,0-4.72-5c-2.69-2.32-4.2-5.85-7.69-7.34-.35-.15-.43-.92-.64-1.41.48-.18,1.07-.65,1.44-.51,1.63.61,3.5,1.06,4.75,2.18a81.55,81.55,0,0,1,8.12,8.4c2,2.41,3.46,5.3,5.37,7.81a16.15,16.15,0,0,1,3.1,5.82c.53,2.11,1,4.23,1.52,6.34,1.31,2.91,2.86,5.72,4.31,8.57a.74.74,0,0,0,.06-.65c-.92-2.46-1.86-4.92-2.79-7.38a3.39,3.39,0,0,1-.34-1.28c0-.39.3-1.05.53-1.08a1.42,1.42,0,0,1,1.19.52,24.17,24.17,0,0,1,2,4.46,93.32,93.32,0,0,0,4.34,12.71,4.81,4.81,0,0,1,.41,2c0,.35-.41.78-.75,1-.15.09-.59-.26-.88-.43s-.26-.21-.4-.31l-.3.12c.88,4.05,1.59,8.12,2.39,12.18.2,1,.41,2-.46,2.62-.49.36-1.33.25-2.11.37-.55,2.25,1.41,3.39,3.12,3.5,1.41.09,2.9.14,4.29.12a13,13,0,0,1-.1-2.59c.68-4.13,1.46-8.24,2.15-12.37.22-1.55-.52-1.86-1.73-2.59-.58,1.13-1.46,2.15-.37,3.49a2.23,2.23,0,0,1,.18,1.43c-.17,1.8-.41,3.59-.61,5.39-.15,1.43-.18,2.88-.47,4.28A3.68,3.68,0,0,1,191,92.93c-.12.13-.82,0-.85-.16a7.54,7.54,0,0,1-.14-1.72c.39-1.37,1-2.86-.45-4a1,1,0,0,1-.35-.86,5.62,5.62,0,0,0-.47-4.27,1.18,1.18,0,0,1,0-.85c.52-1.89,1-3.77,1.63-5.64.47-1.48,1.07-2.93,1.54-4.41a5.22,5.22,0,0,0,0-1.48l-.41-.06c-.17.38-.33.78-.52,1.15-.63,1.22-2.26,1.66-2.85.79-2.28-3.33-2.64-7.21-3.12-11,0-.34.24-.73.37-1.09l.39,0c.63,2,1.25,4.07,1.87,6.1H188a7.84,7.84,0,0,0,.47-1.18,29.65,29.65,0,0,1,3.86-8.88c.32-.52.43-1.59,1.38-1.12.2.09,0,1.29-.24,1.9-.5,1.29-1.13,2.52-1.71,3.78l.3.14a29,29,0,0,0,1.84-2.59A31.63,31.63,0,0,1,201,48.3c1.13-.94,2.36-1.77,3.45-2.76,2.65-2.39,5.11-5,7.91-7.22a108.13,108.13,0,0,1,14.35-9.56,93.82,93.82,0,0,1,13.64-6.54,5.81,5.81,0,0,1,1.82,0l.12.57c-3.33,2-7.13,3.42-10.59,5.27-2.19,1.12-4.33,2.34-6.42,3.64-3.06,1.91-6.18,3.77-9.06,5.95a110.45,110.45,0,0,0-8.79,7.53,27.77,27.77,0,0,0-3.75,4.54c-1.07,1.54-1.93,3.23-2.85,4.87-1.15,2-2.29,4.06-3.39,6.12a19.14,19.14,0,0,0-.81,2A2.49,2.49,0,0,0,199.5,61,7.91,7.91,0,0,1,201,58.67,79.22,79.22,0,0,1,214.2,48.39a151.23,151.23,0,0,1,13.38-8.07,1.47,1.47,0,0,1,1.79.25,2.62,2.62,0,0,0,1.67.32,9,9,0,0,0,2.26-.59,11,11,0,0,0,4.07-2.41,15.83,15.83,0,0,1,4.91-3.57c3.37-1.39,6.94-2.3,10.43-3.41,1.41-.45,2.8-1,4.23-1.33,7.49-1.87,15-3.69,22.65-4.92,4.22-.66,8.48-1.11,12.72-1.67,0,0,.07-.12.17-.3-.45,0-.84-.08-1.23-.06-2.34.13-4.68.25-7,.45-10.74.94-21.55,2.27-32,5-10.63,2.6-20.69,6.81-30.66,11.23a19.48,19.48,0,0,0-6.94,4.59,34.48,34.48,0,0,1-4.26,3.73c-.33.26-1,.06-1.55.07.07-.52,0-1.16.23-1.52a19.1,19.1,0,0,1,1.82-1.64,105.47,105.47,0,0,1,15-11.8,70.39,70.39,0,0,1,15.87-8.35,74,74,0,0,1,7.51-2c.7-.17,1.59-.26,1.83,1.06a58.38,58.38,0,0,0-22.12,10,1.34,1.34,0,0,0,.93,0c4.74-1.73,9.44-3.61,14.25-5.17,11.32-3.86,23.19-5.44,34.94-7.4,4.5-.73,9-1.27,13.57-1.85,1.17-.14,1.52-.56,1.47-1.82C294,13.66,294,10.08,294,6.51c0-1.06-.42-1.42-1.37-1.65-4.24-1-10.57-2.21-14.82-1.3,4.05-.87,11-5.68,21.38-2.46.14.14.27.3.42.44,4.17,3.66.3,6.57-.13,10.88-.2,1.49-.05,3-1.51,3.93a1.83,1.83,0,0,0-.44.73c-.45,1.05-.2,1,.94,1,4-.28,8,0,12,.1,2.09,0,4.19.11,6.26.34a1.93,1.93,0,0,1,1.35,1.23c.12.82-.72.94-1.42.93a2.92,2.92,0,0,0-2.55,1.63c4,.41,7.81.86,11.77,1.31a1.27,1.27,0,0,1,1.23,1.54c-.1,1.34-1.56,1.3-2.55,1.05a40.38,40.38,0,0,0-4.72-.88c-4.67-.31-9.35-.72-14-.65-12.13,0-24.11,1.68-36,3.9a18.11,18.11,0,0,0-2.52.83l.12.37c4.53-.76,9.12-1.14,13.68-1.59,3.81-.32,7.64-.66,11.45-.69,3.45,0,6.89.36,10.34.56,7.63.45,15.28.73,22.85,2,5.4.88,10.84,1.52,16.26,2.3a2.55,2.55,0,0,1,1.55.65,8.91,8.91,0,0,0,3.57,2.47c2.07.91,4,2.16,6,3.18a2,2,0,0,1,1.17,2.72,19.47,19.47,0,0,0-1,3.54c-.26,1.92-.69,3.85.81,5.63.91,1.08.22,3-1.08,3.7-.34.19-.69.36-1.38.73,1.69,1,3.71.91,4.56,3,.07.18.42.24.64.36,1.21.65,1.37,1.07.64,2.24A11,11,0,0,1,355,63l.14.31a3.54,3.54,0,0,0,1.26,0c3.44-1.32,6.79-.22,10.14.37.37.07.77.71.89,1.15a3.75,3.75,0,0,1-.09,1.59c-.5,2.48-1,5-1.56,7.45-1.69,6.77-2.92,13.63-4.06,20.51-1.15,6-2.2,11.94-3.74,17.81-.5,1.82-1.33,3.55-1.75,5.38-1.52,7.26-2.7,14.61-4.67,21.77-1.17,4.2-1.53,8.6-3.4,12.64a26.37,26.37,0,0,0-1.21,5,6.75,6.75,0,0,1-3.53,4.77,13,13,0,0,1-6,1.45c-7.67.22-15.33.82-23,.95a37.58,37.58,0,0,1-4.46-.43c-3.51-.32-7.07-.07-10.6-.2-7.77-.28-15.56-.06-23.33,0a46.4,46.4,0,0,0-7.37.45c-3.33.59-6.57,1.7-9.9,2.37a58.09,58.09,0,0,0-10.73,3.6c-2.93,1.21-5.46,1.47-8.73,3.82-.33.24-.8.4-1.18.63a24.33,24.33,0,0,1-4,2.39c-3.9,1.42-7.88,2.65-11.84,3.89-1.28.39-1.14.29-2.54.65M279.77,41.09c.45.38.89.56,1,.84.31,1.13,1.14,1,2,1,7.27-.75,14.56-1.18,21.77.26.38.08,1,.43,1,.72.21,1.2,1,1.15,1.93,1.24,4.66.45,9.37.71,14,1.52A106.71,106.71,0,0,1,334.66,50a31.09,31.09,0,0,1,6,3.2,1.54,1.54,0,0,1,.64,1.31,1.81,1.81,0,0,0,.36,1.92c.37.5.42,1.44-.26,1.36-1.28-.15-2.75.55-3.86-.66a2.12,2.12,0,0,0-.81-.55c-3.07-1.17-6.12-2.39-9.24-3.42a16.17,16.17,0,0,0-4.33-.74c-1.61-.08-3.24.26-4.85.17-3.12-.17-6.23-.7-9.35-.75-13.17-.11-26.37.33-39.38,2.51-8.73,1.34-17.54,2.79-25.77,6.14l0,.39a10.86,10.86,0,0,0,1.62-.19c.67-.18,1.29-.58,2-.71a222.84,222.84,0,0,1,22.57-3.2c14.31-1.09,28.67-2.07,43-1.27,4.26.29,8.52.75,12.77,1.21,3.94.51,7.9.92,11.8,1.72,2,.43,4.06.82,6,1.4.6.17,1.05.88,1.56,1.34l-1.61,1.32c-.05,0-.05.14,0,.1A38.09,38.09,0,0,0,347,64.46a1.65,1.65,0,0,0,1.49-.29c.23-.25,0-1-.09-1.47s-.49-1.28-.31-1.77.94-.53,1.47-.72.94-.22,1.62-.38c-.74-.86-1.27-1.47-1.79-2.1a23.79,23.79,0,0,0-8.49-6.63c-4.36-2-8.91-3.54-13.37-5.32-2.21-.88-4.35-1.93-6.59-2.75-2.66-1-5.4-1.71-8.08-2.62a36.77,36.77,0,0,0-10.66-1.75c-2.05,0-6.22-.71-7.72.72a1.85,1.85,0,0,1-1.9.66,9.06,9.06,0,0,0-1.71-.15c-3.4.23-6.8.5-10.19.78A3.61,3.61,0,0,0,279.77,41.09ZM137.6,60.75c.18,1.16.24,1.45.42,2.46a7.74,7.74,0,0,1-1.56-.38c-2.69-1.34-5.33-2.75-8-4.1-1.18-.59-2.38-1.12-3.6-1.6-.29-.11-.71.12-1.06.2.21.35.33.87.64,1,1.49.77,3,1.44,4.54,2.16,3.89,1.84,7.76,3.71,11.65,5.52a28.18,28.18,0,0,0,2.73.91,2.47,2.47,0,0,1,.52.31A18.76,18.76,0,0,1,146.39,69c1.11,1,2.5,1.81,3,3.45A2.83,2.83,0,0,0,151.08,74a4,4,0,0,1,2.3,2.05c.86,1.46,1.8,2.86,2.75,4.36,1-1.07,1.47-1,2.14.28,2,3.84,3.82,7.73,5.68,11.63a3.61,3.61,0,0,1,.09,1.33l-.41.17a9.26,9.26,0,0,1-1.17-1.43c-.68-1.31-1.25-2.68-1.89-4-.78-1.65-1.58-3.29-2.37-4.93,0,2,1.85,3.46,1.69,5.5l-.35.19-4.87-4-.28.22c.68,2.14,2.09,4,2.9,6.16a3.25,3.25,0,0,0,2,2c2,.75,4.07,1.53,6.12,2.26.32.12.89.22,1,.07a1.45,1.45,0,0,0,.19-1.12c-1.07-4.42-3.42-8.36-5.24-12.49a9.32,9.32,0,0,1-.7-1.71c-.08-.28.15-.65.25-1a5.3,5.3,0,0,1,.89.45,1.62,1.62,0,0,1,.4.61c2.35,4.76,4.67,9.53,7.08,14.26a2.23,2.23,0,0,0,1.53,1.1,25.84,25.84,0,0,0,4.65-.3c.35-.06.94-.85.86-1.16-.43-1.65-.3-3.57-2.17-4.6-.41-.22-.55-1-.77-1.49s-.35-1-.52-1.42c-.27,2.44,2.09,4.89-.54,6.78-.6.43-1,.48-1.28-.08a9.31,9.31,0,0,1-.86-2c-.83-2.89-1.62-5.78-2.42-8.68-.3-1.1-.94-2.3-.74-3.31a5.27,5.27,0,0,0-1-3.81,29.45,29.45,0,0,0-3.08-5c-.57,1.12-.93.6-1.34,0-.83-1.13-1.69-2.25-2.54-3.37l-.39.26c1,2.05,2.55,3.78,3.52,5.82,1.87,3.84,3.6,7.75,5.33,11.66a6.51,6.51,0,0,1,.24,1.79l-.58.17c-2.29-5-4.77-10-7.44-14.75a48.12,48.12,0,0,0-4.58-6.27q-4.68-5.77-9.54-11.42c-1.32-1.45-3.32-2.06-5.08-2.81-.9-.39-1.78-.82-2.67-1.23l-.17.3a1.41,1.41,0,0,0,.25.37c3.29,2.73,6.57,5.48,9.88,8.18a39.73,39.73,0,0,1,7.54,8.57c1.13,1.65,2.21,3.33,3.31,5,.76,1.14.31,2.14-1,2.28s-2.07-.85-2.91-1.61c-2.32-2.08-4.61-4.2-6.94-6.28-.25-.22-.71-.48-1-.39-1.49.5-2.42-.5-3.35-1.27-1.26-1-2.36-2.29-3.58-3.4C139.32,62,138.58,61.5,137.6,60.75Zm102.73,3.41.08.63a7.22,7.22,0,0,0,1.14,0c1-.19,2-.52,3-.62,7.82-.75,15.66-1.3,23.52-1.41a168.48,168.48,0,0,1,23.67.39c10.91.75,21.8,2.06,32.72,2.56,5,0,10-.28,14.93-.56l0-.38a9.42,9.42,0,0,0-1.24-.4c-1.78-.33-3.55-.69-5.34-.91-4.77-.59-9.55-1.3-14.35-1.62-4.37-.29-8.78-.12-13.18-.2a22.87,22.87,0,0,1-3.45-.68c-3.45-.19-6.89-.37-10.34-.53-11.63-.46-23.29-1.4-34.9,0a4,4,0,0,0-3,1.6c-.63.92-1.36,1-2.35.46a4.39,4.39,0,0,0-2.42-.49,22.17,22.17,0,0,0-3.29,1A40.16,40.16,0,0,1,240.33,64.16ZM227.49,45.42,227.3,45a6.82,6.82,0,0,0-1.58.43c-3,1.64-6.13,3.19-9.05,5s-5.69,3.9-8.44,6c-3.19,2.41-5.48,5.64-7.68,8.92a5.5,5.5,0,0,0-.51,1.3l.34.15c1.76-2,3.24-4.31,4.91-6.42a4.21,4.21,0,0,1,1.28-1.14,1.32,1.32,0,0,1,1.1.13c.14.09,0,.64,0,1s-.23.33-.37.49c-.66.74-1.14,1.47-.56,2.54a1.35,1.35,0,0,1-.37,1.24c-1.05.74-1.66,2.12-3.18,2.19-.21,0-.45.36-.59.59a34.58,34.58,0,0,0-4.41,13.12,1.64,1.64,0,0,0,.27,1.14,2.73,2.73,0,0,1,.51,2.65,27,27,0,0,0-.6,9.43c.14,1,.5,1.41,1.47,1.23.28-3.77.79-7.47.78-11.23-.08-4.38,1.49-8.26,3.38-12,1.64-3.23,3.88-6.16,5.81-9.25.41-.66.75-1.28,1.57-.79.12.08-.18,1.06-.46,1.52-1.64,2.65-3.41,5.23-5,7.92-.62,1.08-.67,2.47-1.25,3.58a20.41,20.41,0,0,0-2.12,9.66c0,.16.13.32.28.67,2.57-5.48,5.39-10.35,8.32-15.56.66-1.18,1.72-2.28,1.94-3.53a4.59,4.59,0,0,1,2.19-3.47c.92-.64,2.52-2,.65-2.56-.85-.29-1.46-.91-1.24-1.73.49-1.75,1.2-3.44,1.84-5.15a1.13,1.13,0,0,1,.43-.44c2.24-1.66,4.45-3.36,6.74-5C224.9,46.78,226.23,46.14,227.49,45.42ZM120.77,29.8l-.16.43A262.09,262.09,0,0,1,148.9,46.94l-.39-2.09.42-.24a10.83,10.83,0,0,1,1.87,1.47c2.53,3,5,6,7.5,9a78.38,78.38,0,0,1,9.18,14.6c2.37,4.53,4,9.44,6,14.17a4.14,4.14,0,0,0,.81,1.51c2.29,2.14,2.54,5.26,3.21,8.11.18.71.62,1.21,1.45.92s1.86-.66,2.75-1.07c.65-.29.88-.65.35-1.43a7.17,7.17,0,0,1-1-2.75c-.41-2.54-.2-5.21-1.61-7.54a.78.78,0,0,1-.08-.48c.44-3.59-1-6.79-2.06-10.06a12.61,12.61,0,0,0-.77-1.62l-.52.2c.84,3.93,1.74,7.86,2.47,11.82.22,1.19-.06,2.48.17,3.66.41,2.09,1.05,4.14,1.56,6.21.17.71.39,1.63-.55,1.87-.29.07-1-.7-1.22-1.22-.68-1.94-1.16-3.94-1.8-5.89A23.61,23.61,0,0,0,175.57,84c-.26-.57-.78-1.35-.59-1.74a3.91,3.91,0,0,0-.33-3.65,117.73,117.73,0,0,0-11.06-19.49c-5-6.5-9.69-13.61-16.47-18.38-1.61-1.13-3-2.82-5.28-2.54-.25,0-.53-.19-.79-.31-1.43-.63-2.84-1.3-4.29-1.88-5-2-10-4-15-5.93A6.48,6.48,0,0,0,120.77,29.8Zm179.63,15-.06-.31a1.11,1.11,0,0,0-.34-.14,63,63,0,0,0-14.52.19c-4.43.69-8.88,1.25-13.28,2.09-12.1,2.26-24,5.54-35.79,9-2,.59-4.2,1-5.79,2.59-1.83,1.89-3.75,3.69-5.56,5.59a58.26,58.26,0,0,0-11.55,17.08c-.89,2.34-1.62,4.73-2.34,7.13a1.35,1.35,0,0,0,.41,1.19c.83.4.83,1,.79,1.74-.06,1.11-.11,2.23-.09,3.34a1.61,1.61,0,0,0,.43.86c1.28-.4,2.4-.58,2.23-2.2s-.62-3.47-.72-5.22c-.24-4.44,1.54-8.38,3.46-12.21,3.59-7.15,9.1-12.63,15.45-17.36.64-.47,1.22-.43,1.6.14s.85.55,1.44.28c1.84-.83,3.72-1.55,5.54-2.41,6.5-3.08,13.52-4.32,20.5-5.7C270,48.79,278,48.3,286,47.58a3.46,3.46,0,0,0,2.92-1.31c.38-.56.89-.59,1.36.1.8,1.15,3.34,1.38,3.71.32a2,2,0,0,1,2.15-1.41A18.68,18.68,0,0,0,300.4,44.81ZM143.88,87.54a1.61,1.61,0,0,0,.32,2.57,2.73,2.73,0,0,1,.72.67c1,2.07,2.93,3.19,4.62,4.51,1.49,1.18,3.38,1.85,4.9,3,5.81,4.33,13.87,5,20.82,6.16,2.43.35,4.92.17,7.35.48a57.73,57.73,0,0,0,11.82.47c1.07-.08,2.15-.08,3.19-.26a78.82,78.82,0,0,0,13.06-3c2.09-.73,4.09-1.71,6.18-2.44,1.13-.39,2.21-.6,2.45-2,.05-.31.56-.56.88-.82,2.9-2.34,5.87-4.59,8.65-7.07,1-.87,1.5-2.27,2.22-3.44l-.4-.29c-4.6,3.86-8.43,8.62-14.16,11-1.5.64-2.83,1.78-4.36,2.25-3,.93-6,2.11-9.2,2.15a8.82,8.82,0,0,0-1.81.32,54.81,54.81,0,0,1-6.51,1.32c-6.59.55-13.16-.17-19.69-1-10.17-1.38-20.33-4.65-28.54-10.94C145.27,90.35,144.71,88.77,143.88,87.54Zm144-56.11,0,.45a8.22,8.22,0,0,0,1.36.28c3.62.22,7.23.5,10.85.59a135.24,135.24,0,0,1,32,4c3.85,1,7.59,2.39,10.5,5.39a10.14,10.14,0,0,0,2.85,1.65c.17.08.81-.37.79-.43-.43-1.42.32-2.43,1-3.52s.2-1.69-1-2c-2.53-.68-5.07-1.35-7.62-2-6.34-1.1-12.59-2.83-18.95-3.85C309.83,30.5,299.85,31,290,31.05A11.1,11.1,0,0,0,287.84,31.43ZM129.23,62.9c-20.31-10.44-42.74-15.24-65.37-17-3.4-.25-6.85,0-10.27,0l-.07.48C79.55,48.31,104.62,54.43,129.23,62.9ZM271.81,40.45l0-.46a20.81,20.81,0,0,0-2.37,0c-7.93.86-15.72,2.57-23.56,4-1.55.28-3.27-.18-4.81.19-2.66,1-5.35,1.86-7.92,3-3.4,1.53-6.78,3.17-10,5a16.3,16.3,0,0,0-5.52,4.47c-.66.89-.63,1.59.25,2.55,1.82-1.62,3.35-3.36,5.14-4.95.3-.26,1-.09,1.45-.12a3.57,3.57,0,0,1-.16,1.38c-.43.74-1.07,1.36-1.55,2.07a6.1,6.1,0,0,0-.48,1.21l.49.32c.49-.55,1-1.09,1.46-1.67s.72-1.38,1.28-1.78a39,39,0,0,1,6.42-4.29,108.26,108.26,0,0,1,23.42-7.85C260.74,42.27,266.35,41.7,271.81,40.45ZM289,57.64V58a3.68,3.68,0,0,0,.77.21c10.83.8,21.68,1.22,32.52,2,4.71.36,9.39,1,14.09,1.5a3.55,3.55,0,0,0,1.8-.29c.08-1.12-1-1-1.65-1.16-4.84-.72-9.68-1.42-14.52-2-1.66-.22-3.36-.19-5-.31-5.61-.57-11.25-.66-16.89-.72-3.2,0-6.4.07-9.61.15A8,8,0,0,0,289,57.64Zm-.3-20.93.06-.4a7.57,7.57,0,0,0-1.38-.3c-5.14-.12-10.28-.41-15.4-.26a103.33,103.33,0,0,0-20.23,3c-1.4.36-3.6.49-3.86,2.22,0,.88.79.88,1.49.72,5.38-.95,10.73-2.11,16.13-2.88C273.17,37.74,280.92,37.1,288.67,36.71ZM239.48,52.27l.18.47c8.36-2.33,16.74-4.6,25.19-6.61,4.16-1,8.45-1.48,12.57-2.78-1.73-.61-3.43,0-5.17-.05a38.3,38.3,0,0,0-11.07,1.44c-1.66.46-3.3,1-5,1.46A82.33,82.33,0,0,0,239.48,52.27ZM145.76,46.7l-.39.34c11.42,10.9,21,23,26.61,38a29.09,29.09,0,0,0-1.81-5.33c-3.91-8.36-7.84-16.79-13.67-24-1.88-2.42-3.23-5.42-6.47-6.62A31.4,31.4,0,0,1,145.76,46.7ZM69.65,54.31l-.12.39c8.24,1.34,16.54,2.41,24.71,4.11s16.14,4,24.2,6C114.85,61.45,80,54,69.65,54.31ZM300.44,49.9l0-.33a2.89,2.89,0,0,0-.78-.23c-9.51-.38-18.86.55-28.28,1.74-7.79.77-15.37,2.72-22.9,4.77a25,25,0,0,0-3.24,1.31l.12.34C263.33,52.05,281.79,50.31,300.44,49.9ZM83.89,30.43c-2.55-1.58-24,.12-26.44,2.11a12.12,12.12,0,0,0,2.55.13c4.44-.19,8.87-.35,13.3-.64,2.53-.17,5-.52,7.56-.85A30.89,30.89,0,0,0,83.89,30.43Zm146.55,33-.21-.21a3.52,3.52,0,0,0-.81.45c-1,1-2,2.18-3.06,3.18a37.82,37.82,0,0,0-9,13.41,6.76,6.76,0,0,0-.23,1.64l.4.11c1.33-1.92,2.65-3.84,4-5.74,2.89-4.06,5.19-8.53,8.62-12.22A2.36,2.36,0,0,0,230.44,63.46Zm-74.8-18.65-.33.28A120,120,0,0,1,173.49,70.4a29.38,29.38,0,0,0-2-4.58c-3-5.77-5.5-11.92-10.48-16.44C159.25,47.8,157.42,46.33,155.64,44.81ZM326.5,39.05l.12-.61a75.6,75.6,0,0,0-25-3.45c.08.26.2.4.33.43a46,46,0,0,0,5.38,1.23c3.9.45,7.78,1.32,11.75.79a3.79,3.79,0,0,1,1.06.25ZM212.06,79c3.07-6.32,7.4-11.77,11.79-17.22a3.93,3.93,0,0,0-1.5.85c-1.37,1.16-1.46,1.16-2.4-.33C218.14,65,212.47,75.16,212.06,79ZM141.94,59l.22-.27a64.9,64.9,0,0,0-21-14.58l-.2.28Zm66.8,34.64a5.65,5.65,0,0,0-.43,1.14c-.08.83-.65,1.27-1.32,1.11-.45-.11-.77-.78-1.13-1.22s-.75-1.28-1.31-1.57a1.47,1.47,0,0,1-.94-1.86c.14-.69.2-1.39.3-2.08l-.52-.11c-.58,2.1-1.18,4.19-1.72,6.3,0,.17.24.52.45.64a7.74,7.74,0,0,0,6.79.5,2,2,0,0,0,1.12-1.4C210.06,94.67,209.3,94.21,208.74,93.62ZM296.37,66l0-.63c-7.24-.22-14.46-1-21.71-.42l0,.54ZM217,84.28l-.65.06a7,7,0,0,0-.38,2.08c.25,2,.63,4,1.05,5.92.05.22.73.53,1,.45a3.4,3.4,0,0,0,1.56-.93c.22-.26.2-1.15,0-1.28a4.12,4.12,0,0,1-1.76-3.22A31.19,31.19,0,0,0,217,84.28ZM150.71,56.19l.32-.35a45.77,45.77,0,0,0-12.55-11.06l-.31.36Zm174.84-6.42a76.06,76.06,0,0,0-21.64-2.54ZM195.4,76.87l.42.12c1-2.31,2.08-4.58,3-6.92a1.44,1.44,0,0,0-.17-1.28c-.28-.24-1.14-.29-1.29-.09A7.44,7.44,0,0,0,196,71.23,40.7,40.7,0,0,0,195.4,76.87ZM75.1,59C78.94,60.4,83,60.48,87,61l.09-.63A83.84,83.84,0,0,0,75.1,59ZM183.76,76.73a12.3,12.3,0,0,0-2.41-7.49C182.11,71.76,182,74.54,183.76,76.73ZM195.56,89c-.29.22-.45.28-.46.36-.23,1.6-.48,3.2-.6,4.8,0,.2.75.62,1.16.63s1-.49,1-.67C196.36,92.41,196,90.76,195.56,89Zm-10,.42c.27-2.47.39-6.51-1.25-8.55C185.15,83.62,184.4,86.64,185.56,89.39Zm92.59-56.57c-.94-.74-4.71-.39-6.17.66C274.18,33.37,276.22,33.94,278.15,32.82Zm-96,47.84-.64.14c.35,1.66.71,3.31,1.06,5l.47-.09C182.73,84,182.43,82.34,182.13,80.66Zm-3.79-17.3a4.38,4.38,0,0,0,1.88,3.13C179.69,65.39,179.91,63.83,178.34,63.36Zm-4.28-10-.5.31,2.2,3.4.39-.25ZM279.22,32.6l0,.29c.94.27,1.36.55,2.08-.32a.65.65,0,0,0-.08-.54A2.72,2.72,0,0,0,279.22,32.6Zm-36.11,8.6a4.87,4.87,0,0,0-.79,1c0,.08.54.59.6.55a2.62,2.62,0,0,0,.76-.83C243.72,41.82,243.4,41.54,243.11,41.2ZM56.37,32.84l-.1-.63-2.46.56.07.39Zm179.09,31.1.24.57,1.67-.83-.27-.54Zm-58.82-4.19-.44.31,1,1.66.52-.33Z"/><path d="M99.57,12.47c-3.9-.25-7.79-.59-11.68-.72-6.86-.22-13.73-.31-20.59-.45a22.27,22.27,0,0,1-3,0c-.55-.09-1-.63-1.53-1,.42-.54.77-1.47,1.28-1.57a37.13,37.13,0,0,1,6.46-.78c3.25,0,6.5.11,9.74.35,3.72.28,7.44.7,11.15,1.14,3.22.39,6.43.85,9.64,1.36.53.09,1.45.69,1.41.88a1.33,1.33,0,0,1-1.71,1c-.4-.07-.82-.07-1.23-.11Z"/><path d="M107.88,11.91c2.9.54,5.49,1,8.06,1.49,1.85.36,3.69.79,5.54,1.18.32.07.72,0,.94.22a4,4,0,0,1,.68,1c-.36.12-.74.4-1.07.34-3.59-.65-7.16-1.37-10.74-2-1.09-.2-2.22-.22-3.29-.48-.46-.12-.82-.63-1.22-1Z"/><path d="M159.73,34.6c.69-.06,2.19,1.69,2,2.28a1,1,0,0,1-.34.43,7.21,7.21,0,0,1-1.8-1.13c-.25-.26-.16-.89-.18-1.35C159.45,34.73,159.68,34.64,159.73,34.6Z"/><path class="cls-1" d="M91,30.88s-1.19-2.3.77-2.13,22.38,5.53,27.4,9.11S92.9,33,92.05,32.58A2.45,2.45,0,0,1,91,30.88Z"/><path class="cls-1" d="M121.92,40.32s-.59-1.87,1-1.27,10.29,5.53,10.29,5.53,8,4.26,8.09,4.85-5.62-.77-5.62-.08,2.47,2.12.85,2.38-12.85-8.17-12.85-8.17A8.69,8.69,0,0,1,121.92,40.32Z"/><path class="cls-1" d="M97.75,36.66a1.29,1.29,0,0,1-.59,1.62c-1,.6-.94.68,3.4,2.13s23.92,9.36,26.13,11.83,7.06,4.85,7,5.53-.34,1.7-2.38,1.19,3.32,2.47,4.08,2.3,3.15-1.36,2.55-2.89S120.65,45.26,119.8,45.09s-2-3.49.25-2.72,1.36-1.53-.17-1.71-21.1-4.42-21.61-4.85S97.75,36.66,97.75,36.66Z"/><path class="cls-1" d="M58.44,31.09S89.24,28.2,92,28.71s2.38,4.51,2.38,4.51l-40.47-.06-.07-.39A33.79,33.79,0,0,1,58.44,31.09Z"/><path class="cls-1" d="M115,17.6s18.06,10,18.64,12.45-1.41-.32-1.6.51,2.49,3.51,3.32,3.51,5.74,2.94,6.26,3,11.41,3.11,12.21,4.11-6.92-7.81-8.19-8.58S116.2,16.52,115.88,16.45,114.35,16.71,115,17.6Z"/><path class="cls-1" d="M148.09,38.75s12.56,7.28,14,9.66,4.3,4.77,4.72,4.43a1.29,1.29,0,0,0,0-2.05c-.89-.64-16.08-15.32-18.76-16.3S148.09,38.75,148.09,38.75Z"/><path class="cls-1" d="M144.9,39.69s3.75.17,5,1.78S165,56.92,168.35,64.07s7.66,13.32,7.7,16-1.44,2.34-1.44,2.34S146.18,42.15,144.9,39.69Z"/><path class="cls-1" d="M147.88,45.58s2.53,3.53,2.64,4.4,3,1.6,2.36-.29-3.76-5.45-4.36-5.45S147.88,45.58,147.88,45.58Z"/><path class="cls-1" d="M120.35,29.56s25.7,9.36,25.74,9.62A18.44,18.44,0,0,0,149,40.71L146.9,43.9,120.48,30.15Z"/><path class="cls-1" d="M245.58,36.11s24.77-9.7,32.94-10c0,0,20-2.93,22.21-2.55s23.36.64,26.17,1.92,2.68,3.57-1,3.06S254,32.41,245.58,36.11Z"/><path class="cls-1" d="M295.88,35.86s10.34-2.3,20.3-.26,17.23,4.85,19,6.26,4.09,6.76-.64,4.08-33.83-9.06-36.12-9.06S295.75,36.75,295.88,35.86Z"/><path class="cls-1" d="M245.2,39.94s25.66-7.79,46-5.36,26.42,3.06,26.42,3.06,5,.9,2.3,1.92-59.74-1.41-63.32.13a44.23,44.23,0,0,1-9.95,2.93C245.46,42.62,243.41,40.84,245.2,39.94Z"/><path class="cls-1" d="M238.31,42.88s.86,0-5,1.27-8.51,1.91-9.06,2.69.25-3.45,3.82-3.83,7.79-.13,9.07-1.15,1.66-2.56,2.68-2.81,4.61,2,3.84,2.84-1.16,1.37-1.93,1.37S239,42.62,238.31,42.88Z"/><path class="cls-1" d="M209.12,53.52s-9,9.14-9.75,11,.1,3.27,1,2.25,6.74-9.95,9.8-11S226,43.56,229,44s8-2.08,7.36-2.34-4.09.81-5.32.73-1-1.49-3.11-.73S209.37,53.13,209.12,53.52Z"/><path class="cls-1" d="M169.28,57.14s1.69,1.06,3.09,5.68,3,5.88,3.32,4.15-1.56-7.53-3-9.16-2.93-4.75-3.48-4.56-1.91.93-1.4,1.85A15.66,15.66,0,0,0,169.28,57.14Z"/><path class="cls-1" d="M266.09,44.07s-30.8,4.85-35.91,9.45-5.62,6.38-3.83,5.44,1.11.09.94.94.68-1.19,2.46-2,29-12.17,30.64-11.57S266.09,44.07,266.09,44.07Z"/><path class="cls-1" d="M153.54,28.55s.38-.93,1-.7,6.16,3.35,6.48,3.92S173,46,172.91,46.64s3.42,4.89,2.68,5-5.77-2.59-6-3.58a20.15,20.15,0,0,0-3-5.39,25.9,25.9,0,0,1-2.13-3c-.9-1.18-4.12-2.47-4.47-3S153.73,30,153.54,28.55Z"/><path class="cls-1" d="M141.29,61.13s2.17,3.83,4.08,4.09,3.83.64,4.47,1.79,4.6,6.38,5.62,5.87S145.63,59.09,144,58.58s.38,1.66.76,2.43-.76,1.65-1.66.76S139.75,59.35,141.29,61.13Z"/><path class="cls-1" d="M150.73,58.71l6,7.53s.64.38-.38-1.92,1.53.39,2.17,1.28,2.55,3.83,2.3,2.17-4.6-8.42-5.87-9.19-2.56-3.32-2.3-2.43,1,2.17.25,2.3-2-1.91-2.68-1.15S150.73,58.71,150.73,58.71Z"/><path class="cls-1" d="M216.05,63.56s-5.27,8.34-5.27,10,3.74-4.42,4.08-5.28S216.05,63.56,216.05,63.56Z"/><path class="cls-1" d="M209.41,76.49s-4.93,4.26-3.91,6.81"/><path class="cls-1" d="M206.65,45.81S195.54,56,195.16,60s2.55-2.55,3.83-3.83,4.21-5.49,5.1-5.74S206.65,45.81,206.65,45.81Z"/><path d="M256.73,14.37s18.73-7.66,26.39-7.32"/><path d="M257.07,18.62s15.15-4.42,17-3.57"/><path d="M58.61,19.13s7.48-2.55,12.42-2"/><path d="M70,24.07s9.7-2.21,16-1.87"/><path d="M181.84,52.2c.18-.08,6.35,9,6.21,10.21-.1.89,4.3-7.72,5.19-8.09S191.12,63,191.12,63l-2.7,3.26-1.66-1.11Z"/><path class="cls-1" d="M147,99.64s25.53,63,30.29,68.77"/></g></g></svg>