<svg id="Camada_1" data-name="Camada 1" xmlns="http://www.w3.org/2000/svg" viewBox="0 0 356 359"><defs><style>.cls-1{fill:#fff;}</style></defs><path d="M227.91,115.74c0-12.8.07-24.12,0-35.44,0-3.34-1.53-7-.63-9.93s4-5.35,6.09-8c2.24,2.6,6.35,5.17,6.4,7.81.24,12.39-.45,24.81-1.16,37.2-.47,8.27,1.77,13.65,11.16,14.36,8,.61,10.27,6,10.26,13.39-.06,22.54.41,45.08.12,67.61-.1,7.52,1.88,11.64,9.77,13.39,13.77,3,27.32,7.07,40.93,10.81,5.08,1.4,10.46,2.07,10.69,9.69s-2.62,12.21-9.49,14.73c-18,6.59-35.94,13.23-53.95,19.73-10.11,3.65-20.1,8-30.52,10.3-7.43,1.65-16,2.33-23.17.29-38.75-11-77.2-23.13-115.82-34.64-10.61-3.16-21.48-5.43-19.34-20.5.21-1.46-.58-4-1.65-4.56-10.31-5-8-14.38-8.19-22.85-.52-29.93-.91-59.86-1.44-89.78C57.64,93.31,70,82.68,85.63,86c43,9.24,86,18.67,129,27.93C218.46,114.81,222.46,115,227.91,115.74ZM255.62,268c18.08-6.86,36-14.07,54.3-20.41,7.28-2.53,8.15-6.26,5.75-12.94-15.34,5.48-29.93,11.36-44.93,15.81-9.45,2.8-13.53,8.71-15.11,17.54-8-.39-16-.6-24-1.19-9.63-.71-11.42,1.38-9.32,11.95ZM63.34,98.43c0,37.38-.18,74.39.37,111.39,0,2.69,4.85,6.72,8.17,7.75,24.39,7.51,49,14.37,73.49,21.51,20.47,6,40.91,12,62.69,18.43V126.05c-4.35.23-9.9,1.66-14.92.6C149.75,117.48,106.46,107.87,63.34,98.43ZM256,136.07l-40.16-2.7c2.72,7.38-4.58,17.09,7.32,21.55.8.29,1.31,2.35,1.32,3.6q.1,39.67.05,79.51l-6.07.86v22c8.86,1.42,17.09,3.5,25.39,3.87,8,.36,13.47-3,12.31-12.78-.76-6.31-.16-12.78-.16-19.17Zm-39.44,145c3.3-9.25.16-13.48-8.53-15.63-24.35-6-48.67-12.2-72.76-19.13-20.43-5.87-40.53-12.88-61-19.47-2.65,7.88.09,11.58,7.37,13.63,15.17,4.28,30.16,9.19,45.25,13.73Q171.61,267.67,216.52,281.05Zm92.94-47.84-.33-2.11L260,218.16c-.32,1-.65,2.06-1,3.09l25.47,8.05a49.34,49.34,0,0,1-16.17,8.55c-6.13,2.08-11.66,4.17-7.35,12.89Zm-98.4,20,1.92.16V129.28l-1.92,0ZM218.4,234l2-.08v-77l-2,.09Zm-30.15,24.46c.29-1,.58-1.92.86-2.88L97.53,228.67l-.8,2.76Zm65.59-132H222.77c0,.93,0,1.85,0,2.78C233.16,132.28,243.54,135.78,253.84,126.41ZM143.63,103c0,.84,0,1.68,0,2.52l-6,5.25c7,1.89,15,6,21.51-4.18ZM259.23,225.7c.25,4.75.4,7.75.61,11.91L277,230.45Z"/><path class="cls-1" d="M63.34,98.43c43.12,9.44,86.41,19,129.8,28.22,5,1.06,10.57-.37,14.92-.6V257.51c-21.78-6.41-42.22-12.47-62.69-18.43-24.51-7.14-49.1-14-73.49-21.51-3.32-1-8.13-5.06-8.17-7.75C63.16,172.82,63.34,135.81,63.34,98.43ZM161.75,183l2.3-1.13c-4.45-10.56-7.77-21.81-13.68-31.47S133,140.76,123,142c-9.35,1.17-14.08,8.94-16,17.49-3.75,17-.31,32.63,11.44,45.94,6.52,7.38,15,10.71,24.42,8.49,9.63-2.25,15.08-9.64,17.45-19C161.34,191.06,161.32,187,161.75,183Zm5.53-54.3c0,6.72-.4,11.75.17,16.67.29,2.54,1.83,6.5,3.63,7,10.38,3.06,21,5.29,32.55,8,0-7.52.47-13.26-.24-18.86-.28-2.21-2.85-5.35-5-5.92C188.78,133,178.93,131.19,167.28,128.67ZM66.36,106.24c0,6.15-.51,10.53.18,14.71.47,2.86,2.08,7.24,4.11,7.84,10.14,3,20.59,5,32.08,7.61,0-6.63.49-12-.23-17.24-.31-2.22-2.8-5.36-4.88-5.93C88,110.63,78.14,108.79,66.36,106.24Zm89.79,28.17c-.94-4.52-1-8.21-1.88-8.46-12.61-3.35-25.35-6.23-38.06-9.23l-1.55,5.12C126.15,130,141.24,128.46,156.15,134.41Zm46.24,112.05c1.86-18,1.81-18.05-9.12-19.06C189.57,242.51,191.07,245.84,202.39,246.46Z"/><path class="cls-1" d="M256,136.07v96.7c0,6.39-.6,12.86.16,19.17,1.16,9.79-4.35,13.14-12.31,12.78-8.3-.37-16.53-2.45-25.39-3.87v-22l6.07-.86q0-39.9-.05-79.51c0-1.25-.52-3.31-1.32-3.6-11.9-4.46-4.6-14.17-7.32-21.55Z"/><path class="cls-1" d="M216.52,281.05q-44.94-13.46-89.7-26.87c-15.09-4.54-30.08-9.45-45.25-13.73-7.28-2-10-5.75-7.37-13.63,20.5,6.59,40.6,13.6,61,19.47,24.09,6.93,48.41,13.11,72.76,19.13C216.68,267.57,219.82,271.8,216.52,281.05Z"/><path class="cls-1" d="M255.63,268c1.58-8.82,5.66-14.73,15.11-17.53,15-4.45,29.59-10.33,44.93-15.81,2.4,6.68,1.53,10.41-5.75,12.94-18.26,6.34-36.22,13.55-54.3,20.41Z"/><path class="cls-1" d="M309.46,233.21,261,250.74c-4.31-8.72,1.22-10.81,7.35-12.89a49.34,49.34,0,0,0,16.17-8.55L259,221.25c.32-1,.65-2.06,1-3.09l49.12,12.94Z"/><path class="cls-1" d="M211.06,253.24V129.32l1.92,0V253.4Z"/><path class="cls-1" d="M218.4,234V157l2-.09v77Z"/><path class="cls-1" d="M188.25,258.41l-91.52-27,.8-2.76,91.58,26.86C188.83,256.49,188.54,257.45,188.25,258.41Z"/><path class="cls-1" d="M255.62,268l-33.27,10.76c-2.1-10.57-.31-12.66,9.32-11.95,8,.59,16,.8,24,1.19Z"/><path class="cls-1" d="M253.84,126.41c-10.3,9.37-20.68,5.87-31.05,2.78,0-.93,0-1.85,0-2.78Z"/><path class="cls-1" d="M143.63,103l15.45,3.59c-6.53,10.2-14.47,6.07-21.51,4.18l6-5.25C143.6,104.71,143.62,103.87,143.63,103Z"/><path class="cls-1" d="M259.23,225.7,277,230.45l-17.15,7.16C259.63,233.45,259.48,230.45,259.23,225.7Z"/><path d="M161.75,183c-.43,4-.41,8.09-1.38,11.95-2.37,9.37-7.82,16.76-17.45,19-9.46,2.22-17.9-1.11-24.42-8.49-11.75-13.31-15.19-28.9-11.44-45.94,1.88-8.55,6.61-16.32,16-17.49,10-1.25,21.4-1.36,27.35,8.36s9.23,20.91,13.68,31.47Zm-9.31,1.34,2.46-1.1c-4.58-10.18-8-21.15-14.23-30.21-3.07-4.47-11.86-8.26-17-7.18s-10.51,7.92-12.86,13.47c-4.86,11.45-1.93,23.16,3.26,34.09,6,12.59,15.91,19.18,24.68,16.81C147,208,152.54,197.45,152.44,184.31Zm.58,18.05c10.21-18.1,4.63-45.09-9.38-52.38C155.49,168,157.81,179.82,153,202.36Z"/><path d="M167.28,128.67c11.65,2.52,21.5,4.36,31.15,7,2.11.57,4.68,3.71,5,5.92.71,5.6.24,11.34.24,18.86-11.54-2.74-22.17-5-32.55-8-1.8-.54-3.34-4.5-3.63-7C166.88,140.42,167.28,135.39,167.28,128.67Zm13.86,21.52-.47,1.08L199.84,156V139.26l-28.35-6.15V145l3.07-7c2.58,13.54,16.52,6.81,24.13,15.19Z"/><path d="M66.36,106.24c11.78,2.55,21.62,4.39,31.26,7,2.08.57,4.57,3.71,4.88,5.93.72,5.22.23,10.61.23,17.24-11.49-2.61-21.94-4.6-32.08-7.61-2-.6-3.64-5-4.11-7.84C65.85,116.77,66.36,112.39,66.36,106.24ZM98.28,132l3.12-2.25c-2-4.64-2.82-11.81-6.24-13.39-7.29-3.39-15.93-3.88-24-5.56L68.21,113c2.24,4.63,3.33,11.58,7,13.38C82.11,129.79,90.5,130.28,98.28,132Z"/><path d="M156.15,134.41c-14.91-5.95-30-4.37-41.49-12.57l1.55-5.12c12.71,3,25.45,5.88,38.06,9.23C155.2,126.2,155.21,129.89,156.15,134.41Z"/><path d="M202.39,246.46c-11.32-.62-12.82-4-9.12-19.06C204.2,228.41,204.25,228.49,202.39,246.46Z"/><path class="cls-1" d="M152.44,184.31c.1,13.14-5.45,23.67-13.65,25.88-8.77,2.37-18.7-4.22-24.68-16.81-5.19-10.93-8.12-22.64-3.26-34.09,2.35-5.55,7.75-12.39,12.86-13.47s13.89,2.71,17,7.18c6.21,9.06,9.65,20,14.23,30.21Zm-5.23-2.71,1.87-1c-3.87-7.89-6.55-16.74-11.92-23.43-7.2-9-17.88-6.56-22.08,4.24-4.77,12.22-2.55,24.14,5.64,33.91,3.32,4,10.59,7.88,14.92,6.88s7.7-7.91,10.75-12.71C147.65,187.49,147,184.27,147.21,181.6Z"/><path class="cls-1" d="M153,202.36c4.79-22.54,2.47-34.32-9.38-52.38C157.65,157.27,163.23,184.26,153,202.36Z"/><path class="cls-1" d="M181.14,150.19l17.55,2.95c-7.61-8.38-21.55-1.65-24.13-15.19l-3.07,7V133.11l28.35,6.15V156l-19.17-4.74Z"/><path class="cls-1" d="M98.28,132c-7.78-1.72-16.17-2.21-23.1-5.65-3.64-1.8-4.73-8.75-7-13.38l2.94-2.17c8.08,1.68,16.72,2.17,24,5.56,3.42,1.58,4.24,8.75,6.24,13.39Z"/><path d="M147.21,181.6c-.22,2.67.44,5.89-.82,7.88-3,4.8-6.37,11.69-10.75,12.71s-11.6-2.9-14.92-6.88c-8.19-9.77-10.41-21.69-5.64-33.91,4.2-10.8,14.88-13.23,22.08-4.24,5.37,6.69,8.05,15.54,11.92,23.43Z"/></svg>