<svg xmlns="http://www.w3.org/2000/svg" xmlns:xlink="http://www.w3.org/1999/xlink" viewBox="0 0 230.05 151.97"><defs><linearGradient id="Gradiente_sem_nome_140" x1="63.77" y1="4.42" x2="164.46" y2="105.11" gradientUnits="userSpaceOnUse"><stop offset="0" stop-color="#fff"/><stop offset="0" stop-color="#f1f6e1"/><stop offset="0" stop-color="#e5eec6"/><stop offset="0" stop-color="#dbe7b0"/><stop offset="0" stop-color="#d3e29f"/><stop offset="0" stop-color="#cedf94"/><stop offset="0" stop-color="#cbdd8d"/><stop offset="0" stop-color="#cadc8b"/><stop offset="0.28" stop-color="#aead4e"/><stop offset="0.51" stop-color="#9ba521"/><stop offset="0.68" stop-color="#dfd89b"/><stop offset="1" stop-color="#f5fafb"/></linearGradient></defs><g id="Camada_2" data-name="Camada 2"><g id="Camada_1-2" data-name="Camada 1"><polygon points="83.45 146.97 6.93 64.08 44.62 26.4 101.88 95.43 185.36 6.98 222.84 40.72 119.76 146.97 83.45 146.97"/><path d="M185.64,14l30,27-98,101h-32L13.87,64.22l30.4-30.4L101.64,103l84-89m-.57-14-6.7,7.1L102.12,87.89,52,27.43,45,19,37.2,26.74,6.79,57.15,0,63.94,6.52,71l71.77,77.75,3,3.22h40.61l2.95-3,98-101,7.23-7.45-7.72-6.95-30-27L185.07,0Z"/><path d="M91.64,142h-6L13.87,64.22l30.4-30.4L101.64,103l84-89,30,27-98,101h-26Z" fill="#078136"/><path d="M185.64,14l30,27-98,101h-32L13.87,64.22l30.4-30.4L101.64,103l84-89m-.4-9.78-4.69,5L102,92.41,49.66,29.35l-4.91-5.92-5.43,5.44L8.92,59.27,4.16,64,8.72,69,80.5,146.71,82.58,149h38l2.06-2.13,98-101,5.07-5.22-5.41-4.86-30-27-5.08-4.57Z" fill="url(#Gradiente_sem_nome_140)"/></g></g></svg>