<svg xmlns="http://www.w3.org/2000/svg" viewBox="0 0 131.88 131.86"><defs><style>.cls-1{fill:#b9244a;}.cls-2{fill:#fff;}</style></defs><g id="Camada_2" data-name="Camada 2"><g id="Camada_1-2" data-name="Camada 1"><polygon class="cls-1" points="0.5 64.93 0.73 131.21 68.94 131.28 0.5 64.93"/><path d="M70.18,131.78.23,131.71,0,63.75ZM1.23,130.71l66.48.07L1,66.12Z"/><polygon class="cls-2" points="4.82 127.36 14.75 82.36 47.75 118.36 4.82 127.36"/><rect x="17.5" y="101.07" width="0.5" height="27.59" transform="translate(-74.23 43.82) rotate(-43.53)"/><polygon points="26.75 126.36 26.46 124.06 28.75 124.36 26.75 126.36"/><polygon points="8.49 105.14 5.75 104.36 8.75 102.36 8.49 105.14"/><path class="cls-1" d="M12.25,118.86v-3c1.19-.09,4.87-.52,2.74,0,.82-.67.71-.07.45.19.22-1.32.93.15.81.81v2c.35.59-2,1-4,1A1.19,1.19,0,0,1,12.25,118.86Z"/><path d="M12.21,111.92l2,2-.07.07a1.56,1.56,0,0,0-.36-.29.31.31,0,0,0-.4,0,1.69,1.69,0,0,0-.28.78l-.24,1.3,1-.1.82-.12a.73.73,0,0,0,.34-.17.33.33,0,0,0,0-.39,1.71,1.71,0,0,0-.24-.32l.07-.07,1.4,1.39-.07.07a1.27,1.27,0,0,0-.42-.29,2.46,2.46,0,0,0-1,0l-.52.07-1.48.15-.51,2.6a4.34,4.34,0,0,0-.1,1.1,1.18,1.18,0,0,0,.1.36,1.33,1.33,0,0,0,.25.34l-.07.08-2.12-2.12.07-.07a1.62,1.62,0,0,0,.45.28.4.4,0,0,0,.44-.08.38.38,0,0,0,.09-.17,1.82,1.82,0,0,0,.09-.36l.39-1.87-1.61.16a3.8,3.8,0,0,0-.57.1,1,1,0,0,0-.33.18.43.43,0,0,0-.13.38,1,1,0,0,0,.27.47l-.07.07L8,116l.07-.07a1.19,1.19,0,0,0,.37.19,1.36,1.36,0,0,0,.45.06,8.34,8.34,0,0,0,1.3-.06l1.76-.18.47-2.35.07-.4a1.62,1.62,0,0,0,0-.63,1.43,1.43,0,0,0-.28-.46l-.09-.09Z"/><path d="M15.81,115.53l2,2-.07.07a1.56,1.56,0,0,0-.36-.29.31.31,0,0,0-.4,0,1.69,1.69,0,0,0-.28.78l-.24,1.31,1-.11a7.8,7.8,0,0,0,.82-.12.73.73,0,0,0,.34-.17.33.33,0,0,0,.05-.39,1.54,1.54,0,0,0-.23-.32l.06-.07,1.4,1.4-.07.07a1,1,0,0,0-.42-.3,2.51,2.51,0,0,0-1,0l-.52.06-1.48.15-.51,2.6a3.85,3.85,0,0,0-.09,1.1,1,1,0,0,0,.09.36,1.55,1.55,0,0,0,.25.35l-.07.07L14,122l.07-.07a1.79,1.79,0,0,0,.44.27.4.4,0,0,0,.44-.07A.39.39,0,0,0,15,122a3.44,3.44,0,0,0,.1-.37l.38-1.86-1.61.15a3.8,3.8,0,0,0-.57.1.87.87,0,0,0-.32.18.44.44,0,0,0-.14.38,1,1,0,0,0,.27.47l-.07.07-1.48-1.48.07-.07a1.19,1.19,0,0,0,.37.19,1.63,1.63,0,0,0,.45.07,10.2,10.2,0,0,0,1.3-.07l1.76-.18.47-2.35.07-.39a1.67,1.67,0,0,0,0-.64,1.36,1.36,0,0,0-.28-.46l-.09-.09Z"/><circle class="cls-1" cx="65.94" cy="65.93" r="65.43"/><path d="M65.94,131.86a65.93,65.93,0,1,1,65.93-65.93A66,66,0,0,1,65.94,131.86ZM65.94,1a64.93,64.93,0,1,0,64.93,64.93A65,65,0,0,0,65.94,1Z"/><circle class="cls-1" cx="65.94" cy="66.36" r="60.5"/><path d="M65.94,127.36a61,61,0,1,1,61-61A61.06,61.06,0,0,1,65.94,127.36Zm0-121a60,60,0,1,0,60,60A60.07,60.07,0,0,0,65.94,6.36Z"/><rect x="0.84" y="65.86" width="4.79" height="1"/><rect x="126.88" y="65.75" width="5" height="1"/></g></g></svg>