<svg xmlns="http://www.w3.org/2000/svg" xmlns:xlink="http://www.w3.org/1999/xlink" viewBox="0 0 225 63.03"><defs><style>.cls-1{fill:#078136;}.cls-2{fill:url(#Gradiente_sem_nome_140);}</style><linearGradient id="Gradiente_sem_nome_140" x1="18.03" y1="-23.01" x2="206.97" y2="86.07" gradientUnits="userSpaceOnUse"><stop offset="0" stop-color="#fff"/><stop offset="0" stop-color="#f1f6e1"/><stop offset="0" stop-color="#e5eec6"/><stop offset="0" stop-color="#dbe7b0"/><stop offset="0" stop-color="#d3e29f"/><stop offset="0" stop-color="#cedf94"/><stop offset="0" stop-color="#cbdd8d"/><stop offset="0" stop-color="#cadc8b"/><stop offset="0.28" stop-color="#aead4e"/><stop offset="0.51" stop-color="#9ba521"/><stop offset="0.68" stop-color="#dfd89b"/><stop offset="1" stop-color="#f5fafb"/></linearGradient></defs><g id="Camada_2" data-name="Camada 2"><g id="Camada_1-2" data-name="Camada 1"><polygon points="134 58.03 123.48 58 108.5 58 91.01 58.03 5 58.03 5 5.03 91 5.03 104.49 5 118.5 5 134.01 5.03 220 5.03 220 58.03 134 58.03"/><path d="M118.5,10,134,10h81V53H134l-10.5,0h-15L91,53H10V10H91l13.5,0h14m0-10h-14L91,0H0V63H91l17.52,0h15L134,63h91V0H134L118.52,0Z"/><path class="cls-1" d="M102.5,53,91,53H10V10H91l12.5,0h19L134,10h81V53H134l-12.5,0Z"/><path class="cls-2" d="M122.5,10,134,10h81V53H134l-12.5,0h-19L91,53H10V10H91l12.5,0h19m0-7h-19L91,3H3V60H91l11.52,0h19L134,60h88V3H134L122.52,3Z"/></g></g></svg>