<svg id="Camada_1" data-name="Camada 1" xmlns="http://www.w3.org/2000/svg" viewBox="0 0 356 359"><defs><style>.cls-1,.cls-4,.cls-5{fill:#fff;}.cls-1,.cls-2,.cls-5{stroke:#1d1d1b;stroke-miterlimit:10;}.cls-2{fill:none;}.cls-3{fill:#1d1d1b;}.cls-5{stroke-width:0.75px;}</style></defs><path class="cls-1" d="M276,76.8,127.34,215l-48,43.79s-28.57,39.78-30.78,42.71-2,6.37,3.75,5.51,46.45-22.69,48.36-24l1.92-1.32,49-45.47s110.18-88.58,144.22-128.19"/><ellipse class="cls-2" cx="309.42" cy="70.28" rx="7.59" ry="8.91" transform="translate(4.92 159.47) rotate(-29.12)"/><path class="cls-3" d="M303.37,63.86S314.27,54,321.71,52.8"/><path class="cls-1" d="M318.06,77.54l8.14,7.52s-1.06,9.55-7.09,16.13-62.92,54.53-62.92,54.53-10.28,7.36-8.53-.7L298,109.2l18.36-30.49Z"/><path class="cls-4" d="M306.25,61.38a9.4,9.4,0,0,0-4.82,5,9,9,0,0,0-.42,3.5,9.74,9.74,0,0,0,.33,1.76,7.32,7.32,0,0,0,.63,1.69,11.47,11.47,0,0,0,4.93,5,8.61,8.61,0,0,0,6.86.09l-.06,0q2.08-1.65,4.25-3.22l0,0c-1.32,1.19-2.65,2.37-4,3.52l0,0h0c-.59.19-1.16.44-1.76.57a9,9,0,0,1-1.86.22,7.2,7.2,0,0,1-3.61-.85,9.26,9.26,0,0,1-2.87-2.32,15.41,15.41,0,0,1-2-3.07,14.57,14.57,0,0,1-1.08-3.49,7.93,7.93,0,0,1,.28-3.68,8.45,8.45,0,0,1,5.21-4.93Z"/><path class="cls-3" d="M299.91,61.3S288,65,275.6,76.46l-.71,10.33s-.14,3.66-2.26,5.25c0,0,4.13-1.69,5.49-.19s5.61,7.53,5.61,7.53,2.46,3.24-.25,5.65c0,0,3.64-1.25,4.23-.47L298,109.2s19-20.29,17.5-27.4"/><ellipse class="cls-3" cx="307.05" cy="72.22" rx="10.7" ry="12.56" transform="translate(18.88 200.48) rotate(-37.23)"/><path class="cls-4" d="M314.68,82.26a10.74,10.74,0,0,1-8.81,1.79A13,13,0,0,1,298.2,79a14.52,14.52,0,0,1-2.73-8.76,12,12,0,0,1,1-4.5A10,10,0,0,1,299.28,62a10.24,10.24,0,0,1,9-1.76A14,14,0,0,1,316,65.42a13.6,13.6,0,0,1,2.79,8.83A10.75,10.75,0,0,1,314.68,82.26Zm-.06-.08a8.73,8.73,0,0,0,2.72-3.56,10.62,10.62,0,0,0,.78-4.38,14.29,14.29,0,0,0-3-8.17A13.66,13.66,0,0,0,308,61.15a9.93,9.93,0,0,0-8.42,1.29,9.43,9.43,0,0,0-3.79,7.75,13.24,13.24,0,0,0,3,8.25,14.94,14.94,0,0,0,7.17,5,10.83,10.83,0,0,0,4.43.41A8.67,8.67,0,0,0,314.62,82.18Z"/><ellipse class="cls-1" cx="325.17" cy="59.02" rx="6.06" ry="7.11" transform="translate(12.39 165.72) rotate(-29.12)"/><path class="cls-3" d="M330,64.1c-2.93,5.52-15.72,13.61-15.72,13.61s-6.71,4.61-11.92-4.49c0,0-3.41-4.51,1.38-9.76,0,0,12.45-9.07,16.7-9.9S330,64.1,330,64.1Z"/><path class="cls-5" d="M320.77,54.5a6.78,6.78,0,0,0,1.31,6.22c2.46,3.09,6.77,3.24,6.77,3.24s-6.51-3.49-6.46-5.51A8.39,8.39,0,0,1,320.77,54.5Z"/><path class="cls-3" d="M316,81.51a20.48,20.48,0,0,0,1.79-2.17l6.7,6.28-9.91,2.18S316.7,83.81,316,81.51Z"/><path class="cls-3" d="M315.06,88.14l8.86-.23s-1.33,8.45-6.58,12.47-57.64,50.23-57.64,50.23l-5.08,4.09s-9.76,4.1-1.61-2.87"/><path class="cls-3" d="M274.37,90.81q-22.15,21.09-44.73,41.7c-7.54,6.86-15.15,13.65-22.65,20.54s-15,13.83-22.42,20.79q-22.33,20.9-44.81,41.61c-7.49,6.92-15,13.76-22.59,20.61s-15.09,13.71-22.7,20.49l-.07-.08c7.38-7,14.83-14,22.27-20.94s14.88-13.94,22.39-20.83q22.44-20.77,45.14-41.26c7.55-6.85,15.09-13.7,22.55-20.64s14.87-14,22.33-20.9q22.41-20.79,45.22-41.16Z"/><path class="cls-3" d="M285.25,103.82q-21.9,20.57-44.23,40.66c-7.45,6.68-15,13.29-22.39,20S203.82,178,196.46,184.76q-22.08,20.37-44.31,40.57-11.1,10.11-22.34,20.08t-22.45,20l-.06-.07q11-10.29,22-20.43t22.14-20.31q22.18-20.25,44.63-40.2c7.47-6.68,14.93-13.35,22.3-20.12s14.71-13.6,22.08-20.38q22.16-20.27,44.71-40.11Z"/><path class="cls-3" d="M55.66,291.62s-2.63,4.78.4,5.51l3.86,0-4.4,1.63S51.67,300.67,52,297Z"/><path class="cls-4" d="M304.88,62.92a13,13,0,0,0-2.17,5.47,5.78,5.78,0,0,0,2,5.31A10.94,10.94,0,0,0,310,76.14a19.64,19.64,0,0,0,5.93.19v0a15.67,15.67,0,0,1-3,.28,15.12,15.12,0,0,1-3-.24,10.29,10.29,0,0,1-5.35-2.6,6.5,6.5,0,0,1-2.11-5.43,10.69,10.69,0,0,1,2.35-5.46Z"/><path class="cls-3" d="M57,289.92s-2.79,4.71.32,5.26a9.08,9.08,0,0,0,5.42-.68S54.88,293.6,57,289.92Z"/></svg>