<svg xmlns="http://www.w3.org/2000/svg" xmlns:xlink="http://www.w3.org/1999/xlink" viewBox="0 0 225 225"><defs><linearGradient id="Gradiente_sem_nome_140" x1="18.03" y1="57.96" x2="206.97" y2="167.04" gradientUnits="userSpaceOnUse"><stop offset="0" stop-color="#fff"/><stop offset="0" stop-color="#f1f6e1"/><stop offset="0" stop-color="#e5eec6"/><stop offset="0" stop-color="#dbe7b0"/><stop offset="0" stop-color="#d3e29f"/><stop offset="0" stop-color="#cedf94"/><stop offset="0" stop-color="#cbdd8d"/><stop offset="0" stop-color="#cadc8b"/><stop offset="0.28" stop-color="#aead4e"/><stop offset="0.51" stop-color="#9ba521"/><stop offset="0.68" stop-color="#dfd89b"/><stop offset="1" stop-color="#f5fafb"/></linearGradient></defs><g id="Camada_2" data-name="Camada 2"><g id="Camada_1-2" data-name="Camada 1"><polygon points="86 220 86 139 5 139 5 86 86 86 86 5 139 5 139 86 220 86 220 139 139 139 139 220 86 220"/><path d="M134,10V91h81v43H134v81H91V134H10V91H91V10h43M144,0H81V81H0v63H81v81h63V144h81V81H144V0Z"/><path d="M91,215V134H10V91H91V10h43V91h81v43H134v81Z" fill="#078136"/><path d="M134,10V91h81v43H134v81H91V134H10V91H91V10h43m7-7H84V84H3v57H84v81h57V141h81V84H141V3Z" fill="url(#Gradiente_sem_nome_140)"/></g></g></svg>