<svg xmlns="http://www.w3.org/2000/svg" xmlns:xlink="http://www.w3.org/1999/xlink" viewBox="0 0 266.34 200.49"><defs><linearGradient id="Gradiente_sem_nome_140" x1="75.89" y1="25.87" x2="219.24" y2="169.22" gradientUnits="userSpaceOnUse"><stop offset="0" stop-color="#fff"/><stop offset="0" stop-color="#f1f6e1"/><stop offset="0" stop-color="#e5eec6"/><stop offset="0" stop-color="#dbe7b0"/><stop offset="0" stop-color="#d3e29f"/><stop offset="0" stop-color="#cedf94"/><stop offset="0" stop-color="#cbdd8d"/><stop offset="0" stop-color="#cadc8b"/><stop offset="0.28" stop-color="#aead4e"/><stop offset="0.51" stop-color="#9ba521"/><stop offset="0.68" stop-color="#dfd89b"/><stop offset="1" stop-color="#f5fafb"/></linearGradient></defs><g id="Camada_2" data-name="Camada 2"><g id="Camada_1-2" data-name="Camada 1"><polygon points="8.11 96.84 127.65 6.8 159.16 43.1 121.1 74.62 261.15 74.13 261.32 123.06 121.35 125.43 159.62 155.83 127.16 193.55 8.11 96.84"/><path d="M126.93,13.6,152,42.51,107.17,79.67l149-.53.14,39-149,2.53,45.13,35.84-25.9,30.09L16.23,97,126.93,13.6M128.37,0l-7.45,5.61L10.21,89,0,96.7l9.92,8,110.32,89.61,7.54,6.13,6.34-7.36L160,163l6.78-7.88-8.14-6.47L135.38,130.2l121.09-2.06,9.87-.17,0-9.86-.14-39,0-10-10,0L135,69.57l23.37-19.36,7.89-6.53L159.59,36,134.48,7l-6.11-7Z"/><path d="M127.22,13.42l25.11,28.91L107.46,79.49l149-.53.13,39-149,2.53,45.13,35.84-25.9,30.09L16.52,96.81h0Z" fill="#078136"/><path d="M127.22,13.42l25.11,28.91L107.46,79.49l149-.53.13,39-149,2.53,45.13,35.84-25.9,30.09L16.52,96.81l110.7-83.39m1-9.52L123,7.83,12.31,91.22,5.16,96.6l6.94,5.64,110.32,89.61,5.28,4.29,4.44-5.15L158,160.9l4.75-5.52-5.7-4.53-29.83-23.69L256.71,125l6.91-.12,0-6.9-.13-39,0-7-7,0L127,72.42l29.82-24.7,5.52-4.57-4.7-5.41L132.51,8.83,128.23,3.9Z" fill="url(#Gradiente_sem_nome_140)"/></g></g></svg>