<svg id="Camada_1" data-name="Camada 1" xmlns="http://www.w3.org/2000/svg" xmlns:xlink="http://www.w3.org/1999/xlink" viewBox="0 0 356 359"><defs><style>.cls-1{fill:#078136;stroke:url(#Gradiente_sem_nome_140);}.cls-1,.cls-2{stroke-miterlimit:10;stroke-width:3px;}.cls-2{fill:none;stroke:url(#Gradiente_sem_nome_140-2);}</style><linearGradient id="Gradiente_sem_nome_140" x1="111.75" y1="186.44" x2="234.35" y2="186.44" gradientUnits="userSpaceOnUse"><stop offset="0" stop-color="#fff"/><stop offset="0" stop-color="#f1f6e1"/><stop offset="0" stop-color="#e5eec6"/><stop offset="0" stop-color="#dbe7b0"/><stop offset="0" stop-color="#d3e29f"/><stop offset="0" stop-color="#cedf94"/><stop offset="0" stop-color="#cbdd8d"/><stop offset="0" stop-color="#cadc8b"/><stop offset="0.28" stop-color="#aead4e"/><stop offset="0.51" stop-color="#9ba521"/><stop offset="0.68" stop-color="#dfd89b"/><stop offset="1" stop-color="#f5fafb"/></linearGradient><linearGradient id="Gradiente_sem_nome_140-2" x1="47.93" y1="185.95" x2="295.5" y2="185.95" xlink:href="#Gradiente_sem_nome_140"/></defs><path class="cls-1" d="M186.61,227.62h-29q-.1-6.24-.11-7.61,0-14.08,4.66-23.17t18.63-20.45q14-11.37,16.7-14.89a19.88,19.88,0,0,0,4.2-12.26q0-9.31-7.44-16t-20.05-6.64q-12.15,0-20.33,6.93t-11.25,21.13l-29.31-3.64q1.25-20.33,17.32-34.53t42.21-14.2q27.49,0,43.73,14.37t16.25,33.45a36.84,36.84,0,0,1-6,20q-6,9.44-25.51,25.67-10.11,8.41-12.55,13.52T186.61,227.62Zm-29,42.95V238.64h31.93v31.93Z"/><ellipse class="cls-2" cx="171.71" cy="185.95" rx="122.29" ry="116.73"/></svg>