<svg xmlns="http://www.w3.org/2000/svg" xmlns:xlink="http://www.w3.org/1999/xlink" viewBox="0 0 230 201.2"><defs><linearGradient id="Gradiente_sem_nome_140" x1="49.56" y1="28.93" x2="186.69" y2="166.06" gradientUnits="userSpaceOnUse"><stop offset="0" stop-color="#fff"/><stop offset="0" stop-color="#f1f6e1"/><stop offset="0" stop-color="#e5eec6"/><stop offset="0" stop-color="#dbe7b0"/><stop offset="0" stop-color="#d3e29f"/><stop offset="0" stop-color="#cedf94"/><stop offset="0" stop-color="#cbdd8d"/><stop offset="0" stop-color="#cadc8b"/><stop offset="0.28" stop-color="#aead4e"/><stop offset="0.51" stop-color="#9ba521"/><stop offset="0.68" stop-color="#dfd89b"/><stop offset="1" stop-color="#f5fafb"/></linearGradient></defs><g id="Camada_2" data-name="Camada 2"><g id="Camada_1-2" data-name="Camada 1"><polygon points="5 115.03 5 76.44 91.64 6.92 123.13 43.45 84.95 74.84 225 74.84 225 123.78 85.02 125.65 123.19 156.19 90.4 194.02 5 115.03"/><path d="M91,13.84l25,29-45,37H220v39l-149,2,45,36-26,30-80-74v-34l81-65M92.27,0,84.74,6l-81,65L0,74v43.17l3.21,3,80,74,7.58,7,6.77-7.81,26-30,6.81-7.86-8.12-6.5L99,130.47l121.09-1.63,9.87-.13V69.84H98.91l23.44-19.27,7.91-6.51-6.69-7.75-25-29L92.27,0Z"/><path d="M91,13.84l25,29-45,37H220v39l-149,2,45,36-26,30-80-74v-34Z" fill="#078136"/><path d="M91,13.84l25,29-45,37H220v39l-149,2,45,36-26,30-80-74v-34l81-65m.89-9.69L86.62,8.38l-81,65L3,75.48V115.9L5.25,118l80,74,5.3,4.91,4.74-5.46,26-30,4.77-5.51-5.69-4.54-29.74-23.8,129.46-1.74,6.91-.09V72.84H90.54l29.91-24.59L126,43.7l-4.68-5.43-25-29L91.89,4.15Z" fill="url(#Gradiente_sem_nome_140)"/></g></g></svg>