<svg xmlns="http://www.w3.org/2000/svg" xmlns:xlink="http://www.w3.org/1999/xlink" viewBox="0 0 324 203.08"><defs><linearGradient id="Gradiente_sem_nome_140" x1="135" y1="50.82" x2="34.26" y2="151.57" gradientUnits="userSpaceOnUse"><stop offset="0" stop-color="#fff"/><stop offset="0" stop-color="#f1f6e1"/><stop offset="0" stop-color="#e5eec6"/><stop offset="0" stop-color="#dbe7b0"/><stop offset="0" stop-color="#d3e29f"/><stop offset="0" stop-color="#cedf94"/><stop offset="0" stop-color="#cbdd8d"/><stop offset="0" stop-color="#cadc8b"/><stop offset="0.28" stop-color="#aead4e"/><stop offset="0.51" stop-color="#9ba521"/><stop offset="0.68" stop-color="#dfd89b"/><stop offset="1" stop-color="#f5fafb"/></linearGradient><linearGradient id="Gradiente_sem_nome_54" x1="114.95" y1="101.82" x2="133.28" y2="101.82" gradientUnits="userSpaceOnUse"><stop offset="0" stop-color="#fff"/><stop offset="0" stop-color="#f8f7f4"/><stop offset="0" stop-color="#e1dcd0"/><stop offset="0" stop-color="#ccc4b0"/><stop offset="0" stop-color="#bbb094"/><stop offset="0" stop-color="#ada07e"/><stop offset="0" stop-color="#a2936d"/><stop offset="0" stop-color="#9b8a62"/><stop offset="0" stop-color="#96855b"/><stop offset="0" stop-color="#958459"/><stop offset="0.02" stop-color="#9d8c62"/><stop offset="0.1" stop-color="#b8aa82"/><stop offset="0.17" stop-color="#c9bc95"/><stop offset="0.21" stop-color="#cfc39c"/><stop offset="0.22" stop-color="#d3c8a4"/><stop offset="0.23" stop-color="#e0d8bf"/><stop offset="0.25" stop-color="#ebe5d5"/><stop offset="0.27" stop-color="#f3efe6"/><stop offset="0.3" stop-color="#f9f6f1"/><stop offset="0.33" stop-color="#fcfaf8"/><stop offset="0.43" stop-color="#fdfbfa"/><stop offset="0.52" stop-color="#e8e0cf"/><stop offset="0.62" stop-color="#d5c7a8"/><stop offset="0.72" stop-color="#c6b48a"/><stop offset="0.82" stop-color="#bca774"/><stop offset="0.91" stop-color="#b59f67"/><stop offset="1" stop-color="#b39c63"/></linearGradient><linearGradient id="Gradiente_sem_nome_54-2" x1="133.6" y1="101.82" x2="151.93" y2="101.82" xlink:href="#Gradiente_sem_nome_54"/><linearGradient id="Gradiente_sem_nome_54-3" x1="151.26" y1="101.82" x2="175.43" y2="101.82" xlink:href="#Gradiente_sem_nome_54"/><linearGradient id="Gradiente_sem_nome_54-4" x1="179.16" y1="101.95" x2="203.36" y2="101.95" xlink:href="#Gradiente_sem_nome_54"/><linearGradient id="Gradiente_sem_nome_54-5" x1="204.91" y1="101.62" x2="228.15" y2="101.62" xlink:href="#Gradiente_sem_nome_54"/><linearGradient id="Gradiente_sem_nome_54-6" x1="230.83" y1="101.49" x2="255" y2="101.49" xlink:href="#Gradiente_sem_nome_54"/><linearGradient id="Gradiente_sem_nome_54-7" x1="258.83" y1="101.51" x2="283" y2="101.51" xlink:href="#Gradiente_sem_nome_54"/><linearGradient id="Gradiente_sem_nome_54-8" x1="273.09" y1="110.92" x2="282.39" y2="110.92" xlink:href="#Gradiente_sem_nome_54"/></defs><g id="Camada_2" data-name="Camada 2"><g id="Camada_1-2" data-name="Camada 1"><rect x="37.64" y="80.89" width="281.36" height="44"/><path d="M314,85.89v34H42.64v-34H314m10-10H32.64v54H324v-54Z"/><polygon points="5 119.83 5 83.45 87.88 6.93 125.57 44.62 56.84 101.64 125.57 158.47 87.89 196.16 5 119.83"/><path d="M87.74,13.87l30.41,30.4L49,101.64l69.15,57.18L87.74,189.23,10,117.64v-32L87.74,13.87M88,0,81,6.52,3.22,78.29,0,81.26V122l3.23,3L81,196.58l7.06,6.5,6.79-6.78,30.4-30.41,7.77-7.77-8.47-7L64.68,101.63,124.54,52,133,45l-7.76-7.76L94.82,6.79,88,0Z"/><path d="M10,91.24v-6L87.74,13.46l30.41,30.41L49,101.24l69.15,57.18L87.74,188.83,10,117.24v-26Z" fill="#078136"/><path d="M87.74,13.46l30.41,30.41L49,101.24l69.15,57.18L87.74,188.83,10,117.24v-32L87.74,13.46m.2-9.7L83,8.32,5.25,80.1,3,82.17v38.14l2.26,2.08L83,194l4.94,4.55,4.75-4.75,30.41-30.41,5.44-5.44-5.93-4.9L60,101.23l62.65-52,5.91-4.91-5.43-5.43L92.69,8.51,87.94,3.76Z" fill="url(#Gradiente_sem_nome_140)"/><path d="M133.28,113.91H129c-2.07-8.49-8.09-16.32-14-24.18h6c6.43,6.47,11.08,18.87,11.08,18.87" fill="url(#Gradiente_sem_nome_54)"/><path d="M135.78,107.29s4-14.19,10.14-17.56h6c-5.08,6.88-9,11.12-14,24.18H133.6" fill="url(#Gradiente_sem_nome_54-2)"/><path d="M156.22,113.91a4.88,4.88,0,0,1-2.48-.67,5,5,0,0,1-1.81-1.82,4.78,4.78,0,0,1-.67-2.48V94.7a4.78,4.78,0,0,1,.67-2.5,4.91,4.91,0,0,1,1.41-1.53,5.57,5.57,0,0,1,3.28-.94h13.84a4.71,4.71,0,0,1,2.47.68,5.17,5.17,0,0,1,1.81,1.79,4.7,4.7,0,0,1,.69,2.5v13.84a5.49,5.49,0,0,1-1,3.3,5.12,5.12,0,0,1-1.53,1.4,4.79,4.79,0,0,1-2.47.67Zm13.94-6.59v-11A1.36,1.36,0,0,0,168.81,95h-11a1.35,1.35,0,0,0-1.35,1.35v11a1.34,1.34,0,0,0,1.35,1.35h11A1.35,1.35,0,0,0,170.16,107.32Z" fill="url(#Gradiente_sem_nome_54-3)"/><path d="M179.16,111.31V90h5.6l-.4,16.07a2.59,2.59,0,0,0,2.6,2.6l16.4-.07c0,1.54,0,1.24,0,2.67v0c0,1.43,0,.38,0,2.6h-21.6A2.6,2.6,0,0,1,179.16,111.31Z" fill="url(#Gradiente_sem_nome_54-4)"/><path d="M212.66,113.24v-17c0-.88.16-1.23-.72-1.23l-7-.32V90h23.24v4.65H220.4c-1.54,0-1.54,0-1.54,1.55v17h-6.2Z" fill="url(#Gradiente_sem_nome_54-5)"/><path d="M230.83,94.7a4.78,4.78,0,0,1,.67-2.5,4.91,4.91,0,0,1,1.41-1.53,5.54,5.54,0,0,1,3.27-.94H250a4.79,4.79,0,0,1,2.5.68,5.17,5.17,0,0,1,1.81,1.79,4.7,4.7,0,0,1,.69,2.5l-.5,18.54h-4.65l-.12-5.8a1.32,1.32,0,0,0-1.32-1.32H237.35a1.32,1.32,0,0,0-1.32,1.32l-.13,5.8h-4.65Zm18.9,4.86V96.29A1.32,1.32,0,0,0,248.41,95H237.35A1.32,1.32,0,0,0,236,96.29v3.27a1.32,1.32,0,0,0,1.32,1.32h11.06A1.32,1.32,0,0,0,249.73,99.56Z" fill="url(#Gradiente_sem_nome_54-6)"/><path d="M259.15,113.24l-.32-22.09a1.38,1.38,0,0,1,1.38-1.38H278a4.75,4.75,0,0,1,2.5.67,5.15,5.15,0,0,1,1.54,1.4,5.6,5.6,0,0,1,1,3.31v5.42a5.6,5.6,0,0,1-1,3.31,5.15,5.15,0,0,1-1.54,1.4,4.75,4.75,0,0,1-2.5.67l-12.59,0a1.38,1.38,0,0,0-1.38,1.38l-.23,5.88h-4.65Zm18.58-13.91v-3A1.38,1.38,0,0,0,276.35,95H265.41A1.38,1.38,0,0,0,264,96.36v3a1.38,1.38,0,0,0,1.38,1.38h10.94A1.38,1.38,0,0,0,277.73,99.33Z" fill="url(#Gradiente_sem_nome_54-7)"/><path d="M273.09,107.05h4.65s0,4.64,4.65,3.09v4.65S273.09,114.79,273.09,107.05Z" fill="url(#Gradiente_sem_nome_54-8)"/></g></g></svg>