<svg xmlns="http://www.w3.org/2000/svg" xmlns:xlink="http://www.w3.org/1999/xlink" viewBox="0 0 351.07 203.08"><defs><linearGradient id="Gradiente_sem_nome_54" x1="142.02" y1="99.64" x2="160.36" y2="99.64" gradientUnits="userSpaceOnUse"><stop offset="0" stop-color="#fff"/><stop offset="0" stop-color="#f8f7f4"/><stop offset="0" stop-color="#e1dcd0"/><stop offset="0" stop-color="#ccc4b0"/><stop offset="0" stop-color="#bbb094"/><stop offset="0" stop-color="#ada07e"/><stop offset="0" stop-color="#a2936d"/><stop offset="0" stop-color="#9b8a62"/><stop offset="0" stop-color="#96855b"/><stop offset="0" stop-color="#958459"/><stop offset="0.02" stop-color="#9d8c62"/><stop offset="0.1" stop-color="#b8aa82"/><stop offset="0.17" stop-color="#c9bc95"/><stop offset="0.21" stop-color="#cfc39c"/><stop offset="0.22" stop-color="#d3c8a4"/><stop offset="0.23" stop-color="#e0d8bf"/><stop offset="0.25" stop-color="#ebe5d5"/><stop offset="0.27" stop-color="#f3efe6"/><stop offset="0.3" stop-color="#f9f6f1"/><stop offset="0.33" stop-color="#fcfaf8"/><stop offset="0.43" stop-color="#fdfbfa"/><stop offset="0.52" stop-color="#e8e0cf"/><stop offset="0.62" stop-color="#d5c7a8"/><stop offset="0.72" stop-color="#c6b48a"/><stop offset="0.82" stop-color="#bca774"/><stop offset="0.91" stop-color="#b59f67"/><stop offset="1" stop-color="#b39c63"/></linearGradient><linearGradient id="Gradiente_sem_nome_54-2" x1="160.68" y1="99.64" x2="179.01" y2="99.64" xlink:href="#Gradiente_sem_nome_54"/><linearGradient id="Gradiente_sem_nome_54-3" x1="178.33" y1="99.64" x2="202.5" y2="99.64" xlink:href="#Gradiente_sem_nome_54"/><linearGradient id="Gradiente_sem_nome_54-4" x1="206.23" y1="99.77" x2="230.43" y2="99.77" xlink:href="#Gradiente_sem_nome_54"/><linearGradient id="Gradiente_sem_nome_54-5" x1="231.98" y1="99.44" x2="255.23" y2="99.44" xlink:href="#Gradiente_sem_nome_54"/><linearGradient id="Gradiente_sem_nome_54-6" x1="257.9" y1="99.3" x2="282.07" y2="99.3" xlink:href="#Gradiente_sem_nome_54"/><linearGradient id="Gradiente_sem_nome_54-7" x1="285.9" y1="99.32" x2="310.07" y2="99.32" xlink:href="#Gradiente_sem_nome_54"/><linearGradient id="Gradiente_sem_nome_54-8" x1="300.17" y1="108.73" x2="309.47" y2="108.73" xlink:href="#Gradiente_sem_nome_54"/><linearGradient id="Gradiente_sem_nome_140" x1="156.97" y1="50.81" x2="54.85" y2="152.93" gradientUnits="userSpaceOnUse"><stop offset="0" stop-color="#fff"/><stop offset="0" stop-color="#f1f6e1"/><stop offset="0" stop-color="#e5eec6"/><stop offset="0" stop-color="#dbe7b0"/><stop offset="0" stop-color="#d3e29f"/><stop offset="0" stop-color="#cedf94"/><stop offset="0" stop-color="#cbdd8d"/><stop offset="0" stop-color="#cadc8b"/><stop offset="0.28" stop-color="#aead4e"/><stop offset="0.51" stop-color="#9ba521"/><stop offset="0.68" stop-color="#dfd89b"/><stop offset="1" stop-color="#f5fafb"/></linearGradient></defs><g id="Camada_2" data-name="Camada 2"><g id="Camada_1-2" data-name="Camada 1"><rect x="64.71" y="78.71" width="281.36" height="44"/><path d="M341.07,83.71v34H69.71v-34H341.07m10-10H59.71v54H351.07v-54Z"/><path d="M160.36,111.72H156c-2.08-8.49-8.1-16.32-14-24.17h6c6.43,6.46,11.08,18.86,11.08,18.86" fill="url(#Gradiente_sem_nome_54)"/><path d="M162.86,105.11s4-14.2,10.14-17.56h6c-5.09,6.88-9,11.11-14,24.17h-4.33" fill="url(#Gradiente_sem_nome_54-2)"/><path d="M183.3,111.72a4.79,4.79,0,0,1-2.49-.67,5.06,5.06,0,0,1-1.81-1.81,4.79,4.79,0,0,1-.67-2.49V92.52A4.75,4.75,0,0,1,179,90a5.08,5.08,0,0,1,1.41-1.54,5.65,5.65,0,0,1,3.28-.93h13.84a4.7,4.7,0,0,1,2.47.67,5.31,5.31,0,0,1,1.82,1.8,4.76,4.76,0,0,1,.68,2.5v13.83a5.6,5.6,0,0,1-1,3.31,5.25,5.25,0,0,1-1.54,1.39,4.7,4.7,0,0,1-2.47.67Zm13.93-6.59v-11a1.34,1.34,0,0,0-1.35-1.35h-11a1.35,1.35,0,0,0-1.36,1.35v11a1.36,1.36,0,0,0,1.36,1.36h11A1.35,1.35,0,0,0,197.23,105.13Z" fill="url(#Gradiente_sem_nome_54-3)"/><path d="M206.23,109.12V87.81h5.61l-.41,16.07a2.61,2.61,0,0,0,2.6,2.61l16.4-.08c0,1.55,0,1.24,0,2.68v0c0,1.44,0,.39,0,2.6h-21.6A2.59,2.59,0,0,1,206.23,109.12Z" fill="url(#Gradiente_sem_nome_54-4)"/><path d="M239.73,111.06V94c0-.88.17-1.22-.72-1.22l-7-.33V87.81h23.25v4.65h-7.75c-1.55,0-1.55,0-1.55,1.55v17h-6.2Z" fill="url(#Gradiente_sem_nome_54-5)"/><path d="M257.9,92.52a4.75,4.75,0,0,1,.67-2.5A5.08,5.08,0,0,1,260,88.48a5.62,5.62,0,0,1,3.27-.93h13.82a4.75,4.75,0,0,1,2.5.67,5.31,5.31,0,0,1,1.82,1.8,4.76,4.76,0,0,1,.68,2.5l-.5,18.54h-4.65l-.12-5.8a1.33,1.33,0,0,0-1.32-1.33H264.43a1.34,1.34,0,0,0-1.33,1.33l-.12,5.8h-4.65Zm18.9,4.86V94.11a1.32,1.32,0,0,0-1.32-1.32H264.43a1.33,1.33,0,0,0-1.33,1.32v3.27a1.33,1.33,0,0,0,1.33,1.32h11.05A1.33,1.33,0,0,0,276.8,97.38Z" fill="url(#Gradiente_sem_nome_54-6)"/><path d="M286.22,111.06,285.9,89a1.38,1.38,0,0,1,1.38-1.39h17.79a4.85,4.85,0,0,1,2.5.67,5.29,5.29,0,0,1,1.54,1.4,5.6,5.6,0,0,1,1,3.31v5.43a5.55,5.55,0,0,1-1,3.3,5,5,0,0,1-1.54,1.4,4.76,4.76,0,0,1-2.5.68l-12.59,0a1.38,1.38,0,0,0-1.38,1.38l-.23,5.88h-4.65ZM304.8,97.14v-3a1.38,1.38,0,0,0-1.38-1.38H292.49a1.38,1.38,0,0,0-1.39,1.38v3a1.39,1.39,0,0,0,1.39,1.39h10.93A1.38,1.38,0,0,0,304.8,97.14Z" fill="url(#Gradiente_sem_nome_54-7)"/><path d="M300.17,104.86h4.65s0,4.65,4.65,3.1v4.65S300.17,112.61,300.17,104.86Z" fill="url(#Gradiente_sem_nome_54-8)"/><polygon points="29.55 121.41 21.57 114.78 7.42 102.05 24.56 86.23 29.51 81.92 110.73 6.93 148.41 44.62 79.68 101.63 148.42 158.47 110.73 196.16 29.55 121.41"/><path d="M110.59,13.87,141,44.27,71.84,101.64,141,158.82l-30.4,30.41L32.84,117.64l-8-6.64-10-9,13-12,5-4.36,77.75-71.77M110.87,0l-7.06,6.52L26.17,78.2l-4.9,4.26-.1.1-.11.09-13,12L0,102.09l8.15,7.34,10,9,.15.14.16.12,7.8,6.48,77.56,71.41,7.05,6.5,6.79-6.78,30.41-30.41,7.77-7.77-8.47-7L87.52,101.63,147.38,52l8.45-7-7.76-7.76L117.66,6.79,110.87,0Z"/><path d="M27.44,90.06l5-4.36,77.74-71.77,30.41,30.41L71.44,101.7l69.15,57.19-30.41,30.4L32.44,117.7l-8-6.64-10-9h0Z" fill="#078136"/><path d="M110.18,13.93l30.41,30.41L71.44,101.7l69.15,57.19-30.41,30.4L32.44,117.7l-8-6.64-10-9,13-12,5-4.36,77.74-71.77m.2-9.71-4.94,4.57L27.77,80.49l-4.93,4.3-.07.06-.08.07-13,12-5.64,5.21,5.71,5.14,10,9,.1.09.11.09L27.83,123l77.61,71.46,4.94,4.55,4.75-4.75,30.41-30.4L151,158.4l-5.93-4.91L82.41,101.7l62.65-52,5.91-4.9-5.43-5.43L115.13,9l-4.75-4.76Z" fill="url(#Gradiente_sem_nome_140)"/></g></g></svg>