<svg xmlns="http://www.w3.org/2000/svg" xmlns:xlink="http://www.w3.org/1999/xlink" viewBox="0 0 203.08 132.99"><defs><linearGradient id="Gradiente_sem_nome_140" x1="51.22" y1="-2.01" x2="151.97" y2="98.74" gradientUnits="userSpaceOnUse"><stop offset="0" stop-color="#fff"/><stop offset="0" stop-color="#f1f6e1"/><stop offset="0" stop-color="#e5eec6"/><stop offset="0" stop-color="#dbe7b0"/><stop offset="0" stop-color="#d3e29f"/><stop offset="0" stop-color="#cedf94"/><stop offset="0" stop-color="#cbdd8d"/><stop offset="0" stop-color="#cadc8b"/><stop offset="0.28" stop-color="#aead4e"/><stop offset="0.51" stop-color="#9ba521"/><stop offset="0.68" stop-color="#dfd89b"/><stop offset="1" stop-color="#f5fafb"/></linearGradient></defs><g id="Camada_2" data-name="Camada 2"><g id="Camada_1-2" data-name="Camada 1"><polygon points="83.45 127.99 6.93 45.11 44.62 7.43 101.64 76.16 158.47 7.42 196.16 45.11 119.83 127.99 83.45 127.99"/><path d="M158.82,14.84l30.41,30.41L117.64,123h-32L13.87,45.25l30.4-30.41L101.64,84l57.18-69.15M158.12,0l-7,8.47L101.63,68.32,52,8.46,45,0,37.2,7.77,6.79,38.18,0,45,6.52,52l71.77,77.75,3,3.21H122l3-3.22L196.58,52l6.5-7.06-6.78-6.78L165.89,7.77,158.12,0Z"/><path d="M91.64,123h-6L13.87,45.25l30.4-30.41L101.64,84l57.18-69.15,30.41,30.41L117.64,123h-26Z" fill="#078136"/><path d="M158.82,14.84l30.41,30.41L117.64,123h-32L13.87,45.25l30.4-30.41L101.64,84l57.18-69.15m-.49-10.39-4.9,5.93L101.63,73l-52-62.65L44.75,4.46,39.32,9.89,8.92,40.3,4.16,45.06,8.72,50,80.5,127.74,82.58,130h38.13l2.08-2.25L194.38,50l4.55-4.94-4.75-4.75L163.77,9.89l-5.44-5.44Z" fill="url(#Gradiente_sem_nome_140)"/></g></g></svg>