<svg xmlns="http://www.w3.org/2000/svg" xmlns:xlink="http://www.w3.org/1999/xlink" viewBox="0 0 203.65 203.65"><defs><linearGradient id="Gradiente_sem_nome_140" x1="24.4" y1="24.4" x2="179.25" y2="179.25" gradientUnits="userSpaceOnUse"><stop offset="0" stop-color="#fff"/><stop offset="0" stop-color="#f1f6e1"/><stop offset="0" stop-color="#e5eec6"/><stop offset="0" stop-color="#dbe7b0"/><stop offset="0" stop-color="#d3e29f"/><stop offset="0" stop-color="#cedf94"/><stop offset="0" stop-color="#cbdd8d"/><stop offset="0" stop-color="#cadc8b"/><stop offset="0.28" stop-color="#aead4e"/><stop offset="0.51" stop-color="#9ba521"/><stop offset="0.68" stop-color="#dfd89b"/><stop offset="1" stop-color="#f5fafb"/></linearGradient></defs><g id="Camada_2" data-name="Camada 2"><g id="Camada_1-2" data-name="Camada 1"><polygon points="7.07 159.1 64.35 101.82 7.07 44.55 44.55 7.07 101.82 64.35 159.1 7.07 196.58 44.55 139.3 101.82 196.58 159.1 159.1 196.58 101.82 139.3 44.55 196.58 7.07 159.1"/><path d="M159.1,14.14l30.4,30.41-57.27,57.27L189.5,159.1l-30.4,30.4-57.28-57.27L44.55,189.5,14.14,159.1l57.28-57.28L14.14,44.55,44.55,14.14l57.27,57.28L159.1,14.14M159.1,0,152,7.07,101.82,57.28,51.62,7.07,44.55,0,37.48,7.07,7.07,37.48,0,44.55l7.07,7.07,50.21,50.2L7.07,152,0,159.1l7.07,7.07,30.41,30.41,7.07,7.07,7.07-7.07,50.2-50.21L152,196.58l7.07,7.07,7.07-7.07,30.41-30.41,7.07-7.07L196.58,152l-50.21-50.21,50.21-50.2,7.07-7.07-7.07-7.07L166.17,7.07,159.1,0Z"/><path d="M14.14,159.1l57.28-57.28L14.14,44.55,44.55,14.14l57.27,57.28L159.1,14.14l30.4,30.41-57.27,57.27L189.5,159.1l-30.4,30.4-57.28-57.27L44.55,189.5Z" fill="#078136"/><path d="M159.1,14.14l30.4,30.41-57.27,57.27L189.5,159.1l-30.4,30.4-57.28-57.27L44.55,189.5,14.14,159.1l57.28-57.28L14.14,44.55,44.55,14.14l57.27,57.28L159.1,14.14m0-9.9-4.95,4.95L101.82,61.52,49.5,9.19l-5-4.95L39.6,9.19,9.19,39.6,4.24,44.55l4.95,5,52.33,52.32L9.19,154.15,4.24,159.1l4.95,5,30.41,30.4,4.95,5,5-5,52.32-52.32,52.33,52.32,4.95,5,5-5,30.4-30.4,5-5-5-4.95-52.32-52.33L194.45,49.5l5-5-5-4.95L164.05,9.19l-5-4.95Z" fill="url(#Gradiente_sem_nome_140)"/></g></g></svg>