<svg id="Camada_1" data-name="Camada 1" xmlns="http://www.w3.org/2000/svg" viewBox="0 0 1280 1024"><circle cx="357.26" cy="93.45" r="34.1" fill="#fff" stroke="#fff" stroke-miterlimit="10" stroke-width="2"/><circle cx="898.77" cy="103.67" r="34.1" fill="#fff" stroke="#fff" stroke-miterlimit="10" stroke-width="2"/><circle cx="362.37" cy="293.62" r="34.1" fill="#fff" stroke="#fff" stroke-miterlimit="10" stroke-width="2"/><circle cx="362.62" cy="686.05" r="34.1" fill="#fff" stroke="#fff" stroke-miterlimit="10" stroke-width="2"/><circle cx="361.86" cy="931.16" r="34.1" fill="#fff" stroke="#fff" stroke-miterlimit="10" stroke-width="2"/><circle cx="897.26" cy="931.16" r="34.1" fill="#fff" stroke="#fff" stroke-miterlimit="10" stroke-width="2"/><circle cx="898.03" cy="686.05" r="34.1" fill="#fff" stroke="#fff" stroke-miterlimit="10" stroke-width="2"/><circle cx="1115.56" cy="507.84" r="34.1" fill="#fff" stroke="#fff" stroke-miterlimit="10" stroke-width="2"/><circle cx="118.28" cy="507.84" r="34.1" fill="#fff" stroke="#fff" stroke-miterlimit="10" stroke-width="2"/><circle cx="897.49" cy="295.67" r="34.1" fill="#fff" stroke="#fff" stroke-miterlimit="10" stroke-width="2"/><ellipse cx="616.72" cy="511.87" rx="498.34" ry="493.64" fill="none" stroke="#fff" stroke-miterlimit="10" stroke-width="5"/><line x1="897.96" y1="104.5" x2="897.96" y2="293.16" fill="none" stroke="#fff" stroke-miterlimit="10" stroke-width="5"/><line x1="1114.94" y1="506.99" x2="897.67" y2="294.69" fill="none" stroke="#fff" stroke-miterlimit="10" stroke-width="5"/><line x1="1115.45" y1="507.12" x2="897.67" y2="685.33" fill="none" stroke="#fff" stroke-miterlimit="10" stroke-width="5"/><line x1="360.83" y1="86.5" x2="360.83" y2="294.69" fill="none" stroke="#fff" stroke-miterlimit="10" stroke-width="5"/><line x1="117.67" y1="505.93" x2="360.83" y2="294.69" fill="none" stroke="#fff" stroke-miterlimit="10" stroke-width="5"/><line x1="360.73" y1="682.52" x2="118.01" y2="507.63" fill="none" stroke="#fff" stroke-miterlimit="10" stroke-width="5"/><polygon points="363.23 680.49 359.2 934.27 358.23 680.46 363.23 680.49" fill="#fff"/><path d="M348,781.23l11.89,41.33L376.56,784S364.5,810.78,348,781.23Z" fill="#fff" stroke="#fff" stroke-miterlimit="10" stroke-width="0"/><polygon points="900.17 685.32 898.43 922.78 895.17 685.34 900.17 685.32" fill="#fff"/><path d="M883.23,783.86l15,40.31,13.71-39.68S901.92,812.08,883.23,783.86Z" fill="#fff" stroke="#fff" stroke-miterlimit="10" stroke-width="0"/><path d="M901.45,294.8c-4.24-4.24-8.7-8.27-13.21-12.23s-9.13-7.79-13.81-11.53q-14.07-11.25-28.94-21.39a465.72,465.72,0,0,0-62.28-35.89A409.2,409.2,0,0,0,716,188.5a357,357,0,0,0-70.7-12A326,326,0,0,0,573.79,180l-4.43.72-2.21.35-2.2.44-8.79,1.75c-2.92.63-5.82,1.36-8.73,2-1.45.35-2.91.67-4.36,1.05l-4.32,1.18a334.64,334.64,0,0,0-34.09,11.08l-8.36,3.25c-2.77,1.12-5.49,2.36-8.25,3.53l-4.11,1.77c-1.38.59-2.71,1.27-4.07,1.9l-8.11,3.85c-2.69,1.31-5.32,2.74-8,4.1s-5.34,2.71-7.93,4.22c-5.2,3-10.47,5.81-15.55,9l-7.68,4.67-7.53,4.91c-5.07,3.2-9.9,6.75-14.84,10.16-2.48,1.67-4.87,3.48-7.28,5.27l-7.23,5.37c-4.75,3.65-9.42,7.43-14.13,11.14l-.2-.23c4.61-3.85,9.16-7.77,13.82-11.57l7.07-5.59c2.36-1.86,4.71-3.74,7.15-5.5,4.87-3.53,9.65-7.17,14.67-10.49l7.46-5.08,7.62-4.84c10.14-6.5,20.72-12.28,31.4-17.83l8.12-4c1.36-.65,2.69-1.36,4.07-2l4.13-1.84c2.76-1.21,5.5-2.48,8.28-3.64l8.38-3.38a339,339,0,0,1,34.36-11.29l4.36-1.19c1.46-.38,2.94-.7,4.4-1,2.95-.67,5.87-1.4,8.82-2l8.89-1.73,2.22-.42,2.23-.35,4.47-.7a328.52,328.52,0,0,1,72.13-2.93,358.78,358.78,0,0,1,71.06,12.49,410.88,410.88,0,0,1,67.34,25.79A465.44,465.44,0,0,1,846,248.91q14.81,10.26,28.8,21.66,7,5.69,13.74,11.67c4.48,4,8.9,8.06,13.12,12.35Z" fill="#fff"/><path d="M610.18,187.49l41.48-11.33L613.36,159S640,171.39,610.18,187.49Z" fill="#fff" stroke="#fff" stroke-miterlimit="10" stroke-width="0"/><path d="M361,294.8c-4.59,7.19-8.75,14.66-12.71,22.22s-7.67,15.25-11.14,23A435,435,0,0,0,319,387.88a395.59,395.59,0,0,0-12.24,49.58c-1.5,8.38-2.73,16.81-3.63,25.27s-1.47,16.95-1.75,25.45A309.36,309.36,0,0,0,315,588.66c2.41,8.14,5.32,16.12,8.48,24s6.81,15.56,10.52,23.21c3.89,7.56,7.92,15.06,12.43,22.3,2.14,3.68,4.49,7.24,6.8,10.82,1.14,1.81,2.38,3.55,3.59,5.3l3.61,5.29-.32.25c-5.33-6.69-10.47-13.55-15.22-20.68s-9.15-14.5-13.36-22a283.82,283.82,0,0,1-20.34-47.3c-1.38-4.08-2.47-8.24-3.67-12.37s-2.18-8.33-3.06-12.54-1.68-8.44-2.47-12.67c-.64-4.25-1.36-8.49-1.84-12.77s-.91-8.55-1.3-12.83-.6-8.57-.71-12.87c-.3-8.59-.31-17.18.1-25.76s1.07-17.13,2.07-25.65,2.35-17,3.95-25.42a397.56,397.56,0,0,1,12.9-49.72A435.46,435.46,0,0,1,336,339.56q5.41-11.64,11.53-22.92c4.09-7.51,8.37-14.92,13.09-22.06Z" fill="#fff"/><path d="M317.38,512.63l-16.61-34L281.31,510.9S304.16,496.84,317.38,512.63Z" fill="#fff" stroke="#fff" stroke-miterlimit="10" stroke-width="0"/></svg>